<?xml version="1.0" standalone="no"?><!DOCTYPE svg PUBLIC "-//W3C//DTD SVG 1.1//EN" "http://www.w3.org/Graphics/SVG/1.1/DTD/svg11.dtd"><svg t="1599633095962" class="icon" viewBox="0 0 1024 1024" version="1.1" xmlns="http://www.w3.org/2000/svg" p-id="53260" data-spm-anchor-id="a313x.7781069.0.i96" xmlns:xlink="http://www.w3.org/1999/xlink" width="500" height="500"><defs><style type="text/css"></style></defs><path d="M341.333333 967.111111h284.444445v56.888889H341.333333zM816.526222 110.364444l40.220445 40.163556-80.440889 80.497778-40.220445-40.220445zM150.584889 110.364444L230.968889 190.691556l-40.220445 40.220444-80.497777-80.440889zM853.333333 455.111111h113.777778v56.888889h-113.777778zM0 455.111111h113.777778v56.888889H0zM455.111111 0h56.888889v113.777778H455.111111zM483.555556 170.666667C312.888889 170.666667 170.666667 312.888889 170.666667 483.555556c0 119.466667 56.888889 227.555556 170.666666 278.755555V910.222222h284.444445v-147.911111c113.777778-51.2 170.666667-159.288889 170.666666-278.755555 0-170.666667-142.222222-312.888889-312.888888-312.888889z m113.777777 540.444444l-28.444444 17.066667V853.333333H398.222222v-125.155555l-28.444444-17.066667c-91.022222-45.511111-142.222222-130.844444-142.222222-227.555555C227.555556 341.333333 341.333333 227.555556 483.555556 227.555556S739.555556 341.333333 739.555556 483.555556c0 96.711111-51.2 182.044444-142.222223 227.555555z" fill="#224191" p-id="53261" data-spm-anchor-id="a313x.7781069.0.i93" class=""></path><path d="M341.333333 512h113.777778v284.444444h56.888889V512h113.777778V455.111111H341.333333z" fill="#FF6600" p-id="53262" data-spm-anchor-id="a313x.7781069.0.i94" class="selected"></path></svg>