<?xml version="1.0" standalone="no"?><!DOCTYPE svg PUBLIC "-//W3C//DTD SVG 1.1//EN" "http://www.w3.org/Graphics/SVG/1.1/DTD/svg11.dtd"><svg t="1599631922181" class="icon" viewBox="0 0 1024 1024" version="1.1" xmlns="http://www.w3.org/2000/svg" p-id="39970" xmlns:xlink="http://www.w3.org/1999/xlink" width="500" height="500"><defs><style type="text/css"></style></defs><path d="M224.50688 233.38496h425.472c36.352 0 65.536 29.184 65.536 65.536v229.376c0 36.352-29.184 65.536-65.536 65.536h-425.472c-36.352 0-65.536-29.184-65.536-65.536v-229.376c0-35.84 29.184-65.536 65.536-65.536z" fill="#CAE4FF" p-id="39971"></path><path d="M358.69696 860.91264h-192.512c-20.48 0-36.352-16.384-36.352-36.864v-620.032c0-20.48 16.384-36.864 36.864-36.864h620.032c19.968 0 36.864 16.384 36.864 36.352v143.872c0 13.824 11.264 25.6 25.6 25.6s25.6-11.264 25.6-25.6v-143.872c0-48.128-39.424-87.04-87.552-87.04h-621.056c-48.128 0-87.552 39.424-87.552 87.552v620.032c0 48.128 38.912 87.552 87.04 87.552h192.512c13.824 0 25.6-11.264 25.6-25.6s-11.264-25.088-25.088-25.088z m489.984-61.952c-13.824 0-25.6 11.264-25.6 25.6 0 19.968-16.384 36.864-36.352 36.864h-2.56c-13.824 0-25.6 11.264-25.6 25.6 0 13.824 11.264 25.6 25.6 25.6h2.048c48.128 0 87.552-38.912 87.552-87.04v-0.512c0.512-14.848-11.264-26.112-25.088-26.112z" fill="#224191" p-id="39972" data-spm-anchor-id="a313x.7781069.0.i56" class=""></path><path d="M670.50496 295.66464c0-13.824-11.264-25.6-25.6-25.6h-422.912c-13.824 0-25.6 11.264-25.6 25.6 0 13.824 11.264 25.6 25.6 25.6h422.912c14.336 0 25.6-11.264 25.6-25.6z m-448.512 177.664c-13.824 0-25.6 11.264-25.6 25.6 0 13.824 11.264 25.6 25.6 25.6h287.744c13.824 0 25.6-11.264 25.6-25.6 0-13.824-11.264-25.6-25.6-25.6h-287.744z m751.616 83.968l-141.312-141.312c-13.312-13.312-34.816-13.312-47.616 0l-324.608 324.608c-14.336 15.872-22.528 36.352-24.064 57.856v87.552c0 37.376 30.208 67.584 67.584 67.584h87.552c21.504-1.024 41.984-9.728 57.856-24.064l324.608-324.608c13.312-12.8 13.312-34.304 0-47.616 0 0.512 0 0.512 0 0z m-359.936 336.384c-6.144 4.608-13.824 7.68-22.016 9.216h-87.552c-9.216 0-16.896-7.68-16.896-16.896v-88.064c1.024-7.68 4.096-15.36 9.216-22.016l223.232-223.232 117.76 117.76-223.744 223.232z m259.072-259.072l-117.76-117.76 53.248-53.248 117.76 117.76-53.248 53.248z" fill="#FF6600" p-id="39973" data-spm-anchor-id="a313x.7781069.0.i57" class="selected"></path></svg>