<?xml version="1.0" standalone="no"?><!DOCTYPE svg PUBLIC "-//W3C//DTD SVG 1.1//EN" "http://www.w3.org/Graphics/SVG/1.1/DTD/svg11.dtd"><svg t="1600999020983" class="icon" viewBox="0 0 1072 1024" version="1.1" xmlns="http://www.w3.org/2000/svg" p-id="1731" xmlns:xlink="http://www.w3.org/1999/xlink" width="523.4375" height="500"><defs><style type="text/css"></style></defs><path d="M938.666667 592.457143V585.142857c0-153.6-95.085714-292.571429-226.742857-358.4v-14.628571c0-95.085714-80.457143-175.542857-175.542858-175.542857-95.085714 0-175.542857 80.457143-175.542857 175.542857v14.628571C229.180952 292.571429 134.095238 431.542857 134.095238 585.142857v7.314286C60.952381 614.4 9.752381 680.228571 9.752381 760.685714c0 102.4 73.142857 175.542857 175.542857 175.542857 36.571429 0 73.142857-7.314286 102.4-29.257142 65.828571 51.2 153.6 80.457143 248.685714 80.457142 95.085714 0 175.542857-29.257143 241.371429-80.457142 29.257143 14.628571 65.828571 29.257143 109.714286 29.257142 95.085714 0 175.542857-73.142857 175.542857-175.542857 0-73.142857-51.2-146.285714-124.342857-168.228571z m-599.771429 248.685714c14.628571-21.942857 21.942857-51.2 21.942857-80.457143 0-80.457143-65.828571-153.6-146.285714-168.228571V585.142857c0-117.028571 73.142857-226.742857 175.542857-285.257143 29.257143 51.2 80.457143 87.771429 146.285714 87.771429s117.028571-36.571429 146.285715-87.771429c102.4 58.514286 175.542857 168.228571 175.542857 285.257143v7.314286c-80.457143 14.628571-146.285714 87.771429-146.285714 168.228571 0 29.257143 7.314286 58.514286 21.942857 80.457143-58.514286 43.885714-124.342857 65.828571-197.485715 65.828572s-138.971429-21.942857-197.485714-65.828572z" p-id="1732"></path></svg>