<?xml version="1.0" standalone="no"?><!DOCTYPE svg PUBLIC "-//W3C//DTD SVG 1.1//EN" "http://www.w3.org/Graphics/SVG/1.1/DTD/svg11.dtd"><svg t="1599634581183" class="icon" viewBox="0 0 1024 1024" version="1.1" xmlns="http://www.w3.org/2000/svg" p-id="81565" xmlns:xlink="http://www.w3.org/1999/xlink" width="500" height="500"><defs><style type="text/css"></style></defs><path d="M727.2 839.5c0-2.6-0.4-5.3-1-8-7-57.1-29.2-111.7-64-158-32.8-43.6-76.2-79-125.9-102.7 59.5-45.2 94.6-115.2 94.3-189.3 2.4-83.9-42.1-162.5-116.1-205.1-73.9-42.6-165.6-42.6-239.5 0-73.9 42.7-118.3 121.3-116 205.2-0.3 74.2 34.8 144.2 94.5 189.3-49.2 23.4-92.3 58.3-125 101.3C94 717.9 71.6 771.7 64 828.1c-1.2 3.7-1.8 7.6-1.9 11.7v0.3l0.3 4.1 0.1 0.1c0.1 13.3 7.3 25.6 19 32.5 6.1 3.5 12.9 5.3 19.7 5.3 6.8 0 13.6-1.8 19.6-5.3 10.5-6.1 17.3-16.5 18.8-28.2h0.2l0.6-5.3C154 720.8 255.2 626.1 381 617.7c4.6 0.3 9.2 0.5 13.8 0.5 4.7 0 9.3-0.2 14-0.5 125.8 8.3 226.9 103.1 240.6 225.5l0.6 5.3h0.4c1.4 11.6 8.3 22 18.8 28.2 12.2 7.1 27.3 7.1 39.4 0 10.5-6.1 17.3-16.5 18.8-28.2h0.3v-6c0-0.7-0.1-1.3-0.2-1.7l-0.3-1.3zM409.7 539.7c-4.5-0.2-9.7-0.3-14.7-0.3-4.8 0-9.7 0.1-14.8 0.3-82.7-8.8-144.4-76.6-143.5-157.9 2.3-83.2 70.8-149.2 156.1-150.3h2.1c84.3 0 153.4 63.9 157.8 146.4 4.5 82.9-58.3 153.9-143 161.8z" p-id="81566" data-spm-anchor-id="a313x.7781069.0.i204" class="" fill="#224191"></path><path d="M958.8 840.9l-0.2-1.4c0-2.6-0.4-5.3-1-8-7-57.1-29.2-111.7-64-158-32.8-43.6-76.2-79-125.9-102.7 59.5-45.2 94.6-115.2 94.3-189.3 2.4-83.9-42-162.5-116-205.1-29.9-17.3-62.8-27.5-96.3-30.8v0.2c-1.2-0.1-2.5-0.2-3.7-0.2-23.7 0-43 19.3-43 43.2 0 20.8 14.6 38.1 34.1 42.2l-0.1 0.8c79.4 5.1 143 67 147.2 146 3.7 69.3-39.6 130.3-103.3 153l0.1 0.2c-17.3 7.8-29.3 25.3-29.3 45.6 0 22.9 15.3 42.2 36.2 48.1l-0.2 0.5c102.9 25.9 181.1 111.5 193 217.9l0.6 5.3h0.4c1.4 11.6 8.3 22 18.8 28.2 12.2 7.1 27.3 7.1 39.4 0 10.5-6.1 17.3-16.5 18.8-28.2h0.3v-6c0-0.6-0.1-1.2-0.2-1.5z" p-id="81567" data-spm-anchor-id="a313x.7781069.0.i205" class="selected" fill="#FF6600"></path></svg>