<?xml version="1.0" standalone="no"?><!DOCTYPE svg PUBLIC "-//W3C//DTD SVG 1.1//EN" "http://www.w3.org/Graphics/SVG/1.1/DTD/svg11.dtd"><svg t="1605519155122" class="icon" viewBox="0 0 1925 1024" version="1.1" xmlns="http://www.w3.org/2000/svg" p-id="86746" xmlns:xlink="http://www.w3.org/1999/xlink" width="939.94140625" height="500"><defs><style type="text/css"></style></defs><path d="M1207.296 270.336c3.072-15.36 2.048-30.72 2.048-43.008C1198.08 105.472 1071.104 10.24 918.528 10.24h-34.816c-159.744 0-288.768 99.328-293.888 226.304v108.544h234.496v-97.28V239.616c4.096-23.552 32.768-43.008 65.536-43.008H901.12c78.848 0 78.848 33.792 78.848 79.872v2.048c4.096 36.864-5.12 74.752-26.624 108.544L602.112 849.92l-4.096 5.12V1011.712h608.256V835.584H874.496l259.072-352.256c58.368-59.392 84.992-137.216 73.728-212.992z m-34.816 117.76c-3.072 8.192-7.168 16.384-12.288 24.576-7.168 12.288-14.336 23.552-23.552 34.816 9.216-11.264 16.384-23.552 23.552-34.816 5.12-8.192 9.216-16.384 12.288-24.576 10.24-25.6 15.36-51.2 16.384-77.824 0 25.6-6.144 52.224-16.384 77.824z m-11.264-239.616c1.024 2.048 2.048 3.072 3.072 5.12-1.024-1.024-2.048-3.072-3.072-5.12z m5.12 9.216c1.024 2.048 2.048 3.072 3.072 5.12-1.024-1.024-2.048-3.072-3.072-5.12z m5.12 9.216c1.024 2.048 2.048 4.096 2.048 5.12 0-1.024-1.024-3.072-2.048-5.12z m4.096 10.24c1.024 2.048 1.024 4.096 2.048 5.12 0-2.048-1.024-3.072-2.048-5.12z m4.096 9.216c1.024 2.048 1.024 4.096 2.048 6.144-1.024-2.048-2.048-4.096-2.048-6.144z m3.072 10.24c1.024 2.048 1.024 4.096 1.024 6.144 0-2.048-1.024-4.096-1.024-6.144z m2.048 10.24c0 2.048 1.024 5.12 1.024 7.168 0-2.048 0-4.096-1.024-7.168z m2.048 11.264c1.024 3.072 1.024 7.168 1.024 10.24 0-4.096 0-7.168-1.024-10.24z m-40.96-91.136c-1.024-2.048-3.072-3.072-4.096-4.096 1.024 1.024 2.048 3.072 4.096 4.096z m12.288 17.408c-1.024-2.048-2.048-3.072-3.072-5.12 1.024 2.048 2.048 4.096 3.072 5.12z m-6.144-8.192c-1.024-2.048-2.048-3.072-4.096-5.12 2.048 2.048 3.072 3.072 4.096 5.12z m-17.408-21.504l4.096 4.096c-2.048-1.024-3.072-3.072-4.096-4.096z m-4.096-3.072l-4.096-4.096c1.024 1.024 3.072 2.048 4.096 4.096z m-131.072-71.68c3.072 1.024 6.144 1.024 9.216 2.048-4.096 0-7.168-1.024-9.216-2.048z m-29.696-5.12c4.096 1.024 8.192 1.024 13.312 2.048-4.096-1.024-8.192-2.048-13.312-2.048z m14.336 2.048c4.096 1.024 7.168 1.024 11.264 2.048-3.072 0-7.168-1.024-11.264-2.048zM918.528 30.72h6.144-6.144c-1.024 0 0 0 0 0z m203.776 72.704c-2.048-1.024-3.072-3.072-5.12-4.096 2.048 1.024 4.096 3.072 5.12 4.096z m-8.192-7.168c-2.048-1.024-3.072-3.072-5.12-4.096 2.048 1.024 3.072 3.072 5.12 4.096z m-9.216-7.168c-2.048-1.024-3.072-3.072-5.12-4.096 2.048 1.024 3.072 3.072 5.12 4.096zM1095.68 81.92c-2.048-1.024-4.096-2.048-5.12-4.096 1.024 2.048 3.072 3.072 5.12 4.096z m-10.24-6.144l-6.144-3.072c3.072 1.024 4.096 2.048 6.144 3.072z m-10.24-6.144l-6.144-3.072 6.144 3.072z m-10.24-5.12l-6.144-3.072 6.144 3.072z m-10.24-5.12l-6.144-3.072c1.024 1.024 3.072 2.048 6.144 3.072z m-11.264-5.12c-2.048-1.024-5.12-2.048-7.168-3.072 2.048 1.024 4.096 2.048 7.168 3.072z m-12.288-4.096c-2.048-1.024-5.12-2.048-7.168-2.048 3.072 0 5.12 1.024 7.168 2.048z m-11.264-4.096c-3.072-1.024-5.12-2.048-8.192-2.048 3.072 0 5.12 1.024 8.192 2.048z m-50.176-11.264c-4.096-1.024-8.192-1.024-12.288-2.048 4.096 1.024 8.192 1.024 12.288 2.048z m-16.384-2.048c-3.072 0-6.144-1.024-9.216-1.024 3.072 0 6.144 0 9.216 1.024z m-14.336-1.024h-8.192c3.072-1.024 5.12-1.024 8.192 0zM892.928 30.72h-11.264 11.264z m-18.432 0h-7.168c2.048 1.024 5.12 0 7.168 0z m-13.312 1.024h-7.168 7.168z m-14.336 1.024c-2.048 0-4.096 0-7.168 1.024 3.072 0 5.12-1.024 7.168-1.024z m-13.312 2.048c-2.048 0-4.096 1.024-7.168 1.024 3.072-1.024 5.12-1.024 7.168-1.024z m-13.312 2.048c-2.048 0-4.096 1.024-6.144 1.024 2.048 0 4.096-1.024 6.144-1.024z m-12.288 2.048c-2.048 0-4.096 1.024-6.144 1.024 2.048 0 4.096 0 6.144-1.024z m-13.312 4.096c-2.048 1.024-4.096 1.024-6.144 2.048 2.048-1.024 4.096-2.048 6.144-2.048z m-12.288 3.072c-2.048 1.024-4.096 1.024-6.144 2.048 2.048-1.024 4.096-1.024 6.144-2.048z m-12.288 4.096c-2.048 1.024-4.096 1.024-5.12 2.048 1.024-1.024 3.072-1.024 5.12-2.048z m-11.264 4.096c-2.048 1.024-4.096 2.048-6.144 2.048 2.048 0 4.096-1.024 6.144-2.048z m-11.264 5.12c-2.048 1.024-4.096 2.048-5.12 2.048 1.024 0 3.072-1.024 5.12-2.048z m-11.264 5.12c-2.048 1.024-3.072 2.048-5.12 3.072 1.024-1.024 3.072-2.048 5.12-3.072z m-11.264 6.144c-2.048 1.024-3.072 2.048-5.12 3.072 2.048-1.024 3.072-2.048 5.12-3.072z m-10.24 6.144c-2.048 1.024-3.072 2.048-5.12 3.072 2.048-1.024 3.072-2.048 5.12-3.072z m-10.24 6.144c-2.048 1.024-3.072 2.048-5.12 3.072 2.048-1.024 3.072-2.048 5.12-3.072z m-9.216 7.168c-1.024 1.024-3.072 2.048-4.096 3.072 1.024-1.024 2.048-2.048 4.096-3.072z m-9.216 7.168c-1.024 1.024-3.072 2.048-4.096 3.072 1.024-1.024 2.048-2.048 4.096-3.072z m-9.216 7.168c-1.024 1.024-3.072 2.048-4.096 4.096l4.096-4.096z m-8.192 8.192c-1.024 1.024-2.048 3.072-4.096 4.096 1.024-2.048 3.072-3.072 4.096-4.096z m-15.36 16.384c-1.024 1.024-2.048 3.072-3.072 4.096 1.024-1.024 2.048-3.072 3.072-4.096z m7.168-8.192c-1.024 1.024-2.048 3.072-3.072 4.096 1.024-2.048 2.048-3.072 3.072-4.096z m-14.336 16.384c-1.024 1.024-2.048 3.072-3.072 4.096 1.024-1.024 2.048-2.048 3.072-4.096z m-6.144 9.216c-1.024 1.024-2.048 3.072-3.072 5.12 1.024-2.048 2.048-3.072 3.072-5.12z m-5.12 9.216c-1.024 2.048-2.048 3.072-3.072 5.12 1.024-2.048 2.048-3.072 3.072-5.12z m-6.144 10.24c-1.024 2.048-2.048 3.072-2.048 5.12 1.024-2.048 2.048-4.096 2.048-5.12z m-4.096 9.216c-1.024 2.048-1.024 3.072-2.048 5.12 1.024-2.048 1.024-3.072 2.048-5.12z m-4.096 10.24c-1.024 2.048-1.024 4.096-2.048 5.12 1.024-2.048 1.024-3.072 2.048-5.12z m-3.072 10.24c-1.024 2.048-1.024 4.096-2.048 6.144 1.024-2.048 1.024-4.096 2.048-6.144z m-3.072 10.24c0 2.048-1.024 4.096-1.024 6.144 0-2.048 0-4.096 1.024-6.144z m-2.048 10.24c0 2.048-1.024 5.12-1.024 7.168 0-2.048 0-5.12 1.024-7.168z m-2.048 11.264c0 3.072-1.024 7.168-1.024 10.24 1.024-4.096 1.024-7.168 1.024-10.24zM821.248 204.8z m-5.12 5.12c-1.024 1.024-1.024 2.048-2.048 2.048l2.048-2.048z m-4.096 5.12c0 1.024-1.024 2.048-1.024 2.048s1.024-1.024 1.024-2.048z m-3.072 6.144c0 1.024-1.024 2.048-1.024 2.048s1.024-1.024 1.024-2.048z m-2.048 7.168c0 1.024-1.024 1.024-1.024 2.048 0-1.024 0-1.024 1.024-2.048z m16.384-26.624l2.048-2.048-2.048 2.048z m63.488-24.576h-3.072 3.072z m-9.216 0h-3.072c1.024 1.024 2.048 1.024 3.072 0z m-10.24 2.048z m-8.192 2.048c-1.024 0-1.024 1.024-2.048 1.024 0 0 1.024-1.024 2.048-1.024z m-7.168 3.072c-1.024 0-2.048 1.024-3.072 1.024 1.024-1.024 2.048-1.024 3.072-1.024z m-7.168 3.072c-1.024 0-2.048 1.024-3.072 1.024 1.024 0 2.048-1.024 3.072-1.024z m-7.168 3.072c-1.024 1.024-2.048 1.024-3.072 2.048 2.048-1.024 2.048-1.024 3.072-2.048z m-6.144 4.096c-1.024 1.024-2.048 1.024-2.048 2.048 1.024 0 1.024-1.024 2.048-2.048z m59.392-17.408h10.24-10.24zM1790.976 495.616c81.92-45.056 90.112-96.256 90.112-200.704 0-117.76-18.432-163.84-84.992-216.064-61.44-44.032-140.288-68.608-223.232-68.608h-14.336v20.48-20.48c-154.624 0-283.648 96.256-294.912 219.136v99.328h233.472v-97.28c4.096-24.576 32.768-44.032 66.56-44.032h19.456c33.792 0 62.464 20.48 64.512 45.056v120.832c0 47.104-11.264 63.488-133.12 63.488v20.48h-1.024v135.168h20.48c128 0 133.12 22.528 133.12 69.632v143.36c-2.048 27.648-33.792 49.152-71.68 49.152h-16.384c-20.48 0-39.936-8.192-52.224-21.504-5.12-6.144-11.264-15.36-11.264-27.648v-94.208h-233.472V788.48c0 7.168 0 13.312 1.024 21.504 13.312 114.688 131.072 200.704 275.456 200.704 7.168 0 15.36 0 22.528-1.024 8.192 1.024 16.384 1.024 23.552 1.024 87.04 0 169.984-33.792 222.208-90.112 43.008-46.08 52.224-70.656 52.224-206.848 1.024-121.856 1.024-168.96-88.064-218.112zM1675.264 819.2c-1.024 1.024-1.024 2.048-2.048 3.072 0-1.024 1.024-2.048 2.048-3.072z m11.264-26.624c0 1.024 0 2.048-1.024 2.048 1.024 0 1.024-1.024 1.024-2.048z m-1.024 7.168c0 1.024-1.024 2.048-1.024 3.072 0-1.024 0-2.048 1.024-3.072z m-3.072 7.168c0 1.024-1.024 2.048-1.024 3.072 0-1.024 1.024-2.048 1.024-3.072z m-3.072 6.144c-1.024 1.024-1.024 2.048-2.048 3.072 1.024-1.024 1.024-2.048 2.048-3.072z m1.024 169.984l-15.36 3.072c5.12 0 10.24-1.024 15.36-3.072z m-12.288-155.648l2.048-2.048c-1.024 1.024-2.048 1.024-2.048 2.048z m27.648 151.552l-12.288 3.072c4.096 0 8.192-1.024 12.288-3.072z m139.264-545.792c5.12-7.168 9.216-14.336 12.288-22.528-3.072 8.192-7.168 16.384-12.288 22.528z m-1.024-285.696c4.096 6.144 7.168 13.312 10.24 20.48 3.072 7.168 5.12 15.36 8.192 24.576 6.144 26.624 9.216 59.392 9.216 103.424s-2.048 76.8-9.216 103.424c7.168-26.624 9.216-59.392 9.216-103.424s-3.072-76.8-9.216-103.424c-2.048-9.216-5.12-16.384-8.192-24.576-3.072-7.168-7.168-13.312-10.24-20.48zM1558.528 30.72h13.312c38.912 0 77.824 6.144 113.664 16.384 18.432 5.12 35.84 12.288 52.224 20.48s31.744 17.408 46.08 27.648c7.168 6.144 14.336 11.264 19.456 16.384-6.144-5.12-12.288-11.264-19.456-16.384-14.336-10.24-29.696-19.456-46.08-27.648s-33.792-14.336-52.224-20.48c-35.84-11.264-74.752-16.384-113.664-16.384h-13.312zM1751.04 956.416c-2.048 1.024-5.12 3.072-7.168 4.096 2.048-2.048 4.096-3.072 7.168-4.096z m-13.312 7.168z m-13.312 5.12c-3.072 1.024-5.12 2.048-8.192 3.072 2.048 0 5.12-1.024 8.192-3.072z m-14.336 6.144l-9.216 3.072 9.216-3.072zM1667.072 225.28v-2.048 2.048z m-1.024-6.144c0-1.024-1.024-2.048-1.024-2.048s1.024 1.024 1.024 2.048z m-2.048-6.144c0-1.024-1.024-2.048-1.024-3.072 0 1.024 0 2.048 1.024 3.072z m-3.072-6.144c-1.024-1.024-1.024-2.048-2.048-3.072 0 1.024 1.024 2.048 2.048 3.072z m-4.096-6.144c-1.024-1.024-1.024-2.048-2.048-2.048 1.024 1.024 1.024 2.048 2.048 2.048z m-4.096-5.12l-2.048-2.048c0 1.024 1.024 1.024 2.048 2.048z m-5.12-5.12c-1.024-1.024-2.048-1.024-3.072-2.048 1.024 1.024 2.048 1.024 3.072 2.048z m-6.144-4.096c-1.024-1.024-2.048-1.024-3.072-2.048 1.024 0 2.048 1.024 3.072 2.048z m-6.144-4.096c-1.024-1.024-2.048-1.024-3.072-2.048 1.024 0 2.048 1.024 3.072 2.048z m-6.144-4.096c-1.024-1.024-2.048-1.024-3.072-2.048 0 1.024 2.048 1.024 3.072 2.048z m-7.168-3.072c-1.024 0-2.048-1.024-3.072-1.024 0 0 2.048 0 3.072 1.024z m-8.192-3.072c-1.024 0-2.048-1.024-4.096-1.024 2.048 1.024 3.072 1.024 4.096 1.024z m-7.168-2.048c-1.024 0-3.072-1.024-4.096-1.024 1.024 1.024 2.048 1.024 4.096 1.024z m-8.192-1.024h-4.096c1.024-1.024 2.048 0 4.096 0z m-9.216-1.024h-4.096 4.096z m-25.6-1.024h-2.048c0 1.024 1.024 0 2.048 0z m-217.088-58.368c-1.024 1.024-3.072 2.048-4.096 4.096l4.096-4.096zM1554.432 30.72h-9.216 9.216z m-15.36 1.024h-7.168 7.168z m-14.336 1.024c-2.048 0-5.12 0-7.168 1.024 3.072-1.024 5.12-1.024 7.168-1.024z m-13.312 1.024c-2.048 0-4.096 1.024-6.144 1.024 2.048 0 4.096 0 6.144-1.024z m-13.312 2.048c-2.048 0-4.096 1.024-6.144 1.024 2.048 0 4.096 0 6.144-1.024z m-13.312 3.072c-2.048 0-4.096 1.024-6.144 1.024 2.048 0 4.096-1.024 6.144-1.024z m-12.288 3.072c-2.048 0-4.096 1.024-6.144 1.024 2.048 0 4.096-1.024 6.144-1.024z m-12.288 3.072c-2.048 1.024-4.096 1.024-6.144 2.048 2.048-1.024 4.096-1.024 6.144-2.048z m-12.288 4.096c-2.048 1.024-4.096 1.024-5.12 2.048 2.048-1.024 3.072-2.048 5.12-2.048z m-11.264 4.096c-2.048 1.024-3.072 1.024-5.12 2.048 1.024-1.024 3.072-1.024 5.12-2.048z m-11.264 5.12c-2.048 1.024-3.072 1.024-5.12 2.048 1.024-1.024 3.072-2.048 5.12-2.048z m-11.264 5.12c-2.048 1.024-3.072 2.048-5.12 2.048 1.024-1.024 3.072-2.048 5.12-2.048z m-11.264 5.12c-2.048 1.024-3.072 2.048-5.12 3.072 2.048-1.024 4.096-2.048 5.12-3.072z m-10.24 6.144c-2.048 1.024-3.072 2.048-5.12 3.072 2.048-2.048 3.072-2.048 5.12-3.072z m-10.24 6.144c-1.024 1.024-3.072 2.048-4.096 3.072 1.024-1.024 3.072-2.048 4.096-3.072z m-9.216 6.144c-1.024 1.024-3.072 2.048-4.096 3.072 1.024-1.024 2.048-2.048 4.096-3.072z m-9.216 7.168c-1.024 1.024-3.072 2.048-4.096 3.072 1.024-1.024 2.048-2.048 4.096-3.072z m-9.216 7.168c-1.024 1.024-3.072 2.048-4.096 3.072 1.024-1.024 3.072-2.048 4.096-3.072z m-23.552 23.552c-1.024 1.024-2.048 3.072-3.072 4.096 0-1.024 1.024-3.072 3.072-4.096z m7.168-8.192c-1.024 1.024-2.048 3.072-4.096 4.096 2.048-1.024 3.072-3.072 4.096-4.096z m-53.248 103.424c-1.024 3.072-1.024 7.168-1.024 10.24 0-3.072 0-6.144 1.024-10.24z m38.912-87.04c-1.024 1.024-2.048 3.072-3.072 4.096 1.024-1.024 2.048-2.048 3.072-4.096z m-7.168 9.216c-1.024 1.024-2.048 3.072-3.072 4.096 1.024-1.024 2.048-3.072 3.072-4.096z m-6.144 9.216c-1.024 2.048-2.048 3.072-3.072 5.12 2.048-2.048 3.072-4.096 3.072-5.12z m-5.12 9.216c-1.024 2.048-2.048 3.072-3.072 5.12 1.024-2.048 2.048-4.096 3.072-5.12z m-5.12 9.216c-1.024 2.048-2.048 3.072-2.048 5.12 1.024-2.048 1.024-3.072 2.048-5.12z m-4.096 9.216c-1.024 2.048-1.024 3.072-2.048 5.12 1.024-1.024 1.024-3.072 2.048-5.12z m-4.096 10.24c-1.024 2.048-1.024 4.096-2.048 6.144 1.024-2.048 2.048-4.096 2.048-6.144z m-3.072 10.24c-1.024 2.048-1.024 4.096-2.048 6.144 1.024-2.048 2.048-4.096 2.048-6.144z m-2.048 10.24c0 2.048-1.024 4.096-1.024 7.168 0-2.048 0-5.12 1.024-7.168z m204.8-13.312c-1.024 1.024-1.024 2.048-2.048 2.048 1.024 0 1.024-1.024 2.048-2.048z m-4.096 6.144c-1.024 1.024-1.024 2.048-2.048 2.048 0-1.024 1.024-2.048 2.048-2.048z m-4.096 5.12c0 1.024-1.024 2.048-1.024 2.048s0-1.024 1.024-2.048z m-3.072 7.168c0 1.024-1.024 2.048-1.024 2.048 0-1.024 0-2.048 1.024-2.048z m-3.072 6.144c0 1.024 0 1.024-1.024 2.048 1.024 0 1.024-1.024 1.024-2.048z m17.408-27.648c1.024-1.024 2.048-1.024 2.048-2.048l-2.048 2.048z m59.392-25.6h-3.072 3.072z m-8.192 1.024c-1.024 0-2.048 0-3.072 1.024 1.024-1.024 2.048-1.024 3.072-1.024z m-8.192 1.024c-1.024 0-2.048 1.024-3.072 1.024 1.024 0 2.048 0 3.072-1.024z m-8.192 3.072c-1.024 0-2.048 1.024-3.072 1.024 1.024-1.024 2.048-1.024 3.072-1.024z m-7.168 2.048c-1.024 0-2.048 1.024-3.072 1.024 1.024 0 2.048 0 3.072-1.024z m-7.168 4.096c-1.024 1.024-2.048 1.024-3.072 2.048 1.024-1.024 2.048-2.048 3.072-2.048z m-7.168 3.072c-1.024 1.024-2.048 1.024-3.072 2.048 2.048 0 3.072-1.024 3.072-2.048z m-6.144 5.12c-1.024 1.024-2.048 1.024-3.072 2.048 2.048-1.024 3.072-2.048 3.072-2.048z m162.816 643.072c-1.024 1.024-2.048 1.024-3.072 2.048 1.024-1.024 2.048-1.024 3.072-2.048z m-6.144 5.12c-1.024 1.024-2.048 1.024-3.072 2.048 1.024-1.024 2.048-1.024 3.072-2.048z m-7.168 4.096c-1.024 1.024-2.048 1.024-3.072 2.048 1.024-1.024 2.048-1.024 3.072-2.048z m-7.168 4.096c-1.024 1.024-2.048 1.024-3.072 2.048 1.024-1.024 2.048-1.024 3.072-2.048z m-7.168 3.072c-1.024 0-2.048 1.024-4.096 1.024 1.024 0 3.072 0 4.096-1.024z m-8.192 3.072c-1.024 0-3.072 1.024-4.096 1.024 1.024 0 3.072-1.024 4.096-1.024z m-8.192 2.048c-1.024 0-3.072 1.024-4.096 1.024 1.024 0 2.048-1.024 4.096-1.024z m-9.216 2.048h-4.096 4.096z m-9.216 1.024h-4.096 4.096z m-32.768-1.024c-6.144-1.024-11.264-2.048-16.384-3.072 5.12 2.048 10.24 3.072 16.384 3.072z m-46.08-16.384c6.144 4.096 13.312 8.192 21.504 10.24-8.192-2.048-14.336-6.144-21.504-10.24-12.288-8.192-21.504-20.48-26.624-32.768 5.12 13.312 14.336 24.576 26.624 32.768z m27.648 154.624h-7.168 7.168z m-12.288-1.024h-7.168 7.168z m-12.288-1.024c-2.048 0-4.096 0-7.168-1.024 2.048 1.024 4.096 1.024 7.168 1.024z m-12.288-1.024c-2.048 0-4.096-1.024-6.144-1.024 1.024 0 3.072 1.024 6.144 1.024z m-12.288-2.048c-2.048 0-4.096-1.024-6.144-1.024 1.024 0 4.096 1.024 6.144 1.024z m-7.168-273.408h-192.512H1495.04z m-191.488 96.256c0 3.072 1.024 7.168 1.024 10.24 0-4.096-1.024-7.168-1.024-10.24z m2.048 12.288c0 2.048 1.024 4.096 1.024 6.144 0-1.024 0-3.072-1.024-6.144z m3.072 11.264c1.024 2.048 1.024 4.096 2.048 6.144-1.024-3.072-2.048-4.096-2.048-6.144z m2.048 9.216c1.024 2.048 1.024 4.096 2.048 5.12 0-1.024-1.024-3.072-2.048-5.12z m4.096 10.24c1.024 2.048 1.024 3.072 2.048 5.12-1.024-2.048-1.024-4.096-2.048-5.12z m4.096 9.216c1.024 2.048 2.048 3.072 2.048 5.12-1.024-2.048-1.024-4.096-2.048-5.12z m4.096 8.192c1.024 2.048 2.048 3.072 3.072 5.12-1.024-1.024-2.048-3.072-3.072-5.12z m5.12 9.216c1.024 2.048 2.048 3.072 3.072 5.12-1.024-2.048-2.048-4.096-3.072-5.12z m6.144 8.192c1.024 2.048 2.048 3.072 3.072 5.12-1.024-2.048-2.048-3.072-3.072-5.12z m6.144 8.192c1.024 1.024 2.048 3.072 4.096 4.096-2.048-1.024-3.072-2.048-4.096-4.096z m13.312 15.36l4.096 4.096c-1.024-1.024-3.072-2.048-4.096-4.096z m-7.168-7.168l4.096 4.096c-2.048-1.024-3.072-3.072-4.096-4.096z m143.36 80.896c-2.048 0-4.096-1.024-6.144-1.024 2.048 0 4.096 0 6.144 1.024z m-11.264-3.072c-2.048-1.024-4.096-1.024-6.144-2.048 2.048 1.024 4.096 1.024 6.144 2.048z m-11.264-3.072c-2.048-1.024-4.096-1.024-6.144-2.048 1.024 1.024 3.072 1.024 6.144 2.048z m-11.264-4.096c-2.048-1.024-4.096-1.024-6.144-2.048 2.048 1.024 4.096 2.048 6.144 2.048z m-11.264-3.072l-6.144-3.072 6.144 3.072z m-10.24-5.12c-2.048-1.024-5.12-2.048-7.168-3.072 2.048 1.024 4.096 2.048 7.168 3.072z m-10.24-4.096c-3.072-1.024-6.144-3.072-8.192-4.096 2.048 1.024 5.12 2.048 8.192 4.096z m-10.24-5.12c-3.072-2.048-6.144-4.096-10.24-5.12 3.072 1.024 6.144 3.072 10.24 5.12z m-11.264-6.144c-3.072-2.048-5.12-3.072-8.192-5.12 3.072 1.024 5.12 3.072 8.192 5.12z m-11.264-7.168c-2.048-1.024-4.096-3.072-6.144-4.096 2.048 1.024 4.096 2.048 6.144 4.096z m-9.216-7.168c-2.048-1.024-4.096-3.072-5.12-4.096 1.024 2.048 3.072 3.072 5.12 4.096z m-9.216-6.144c-2.048-1.024-3.072-3.072-5.12-4.096 2.048 1.024 4.096 2.048 5.12 4.096z m-8.192-7.168l-4.096-4.096c1.024 1.024 3.072 2.048 4.096 4.096z m192.512 68.608h4.096-4.096z m46.08 0h8.192-8.192z m57.344-5.12c-4.096 1.024-7.168 1.024-11.264 2.048 4.096 0 7.168-1.024 11.264-2.048z m-17.408 3.072c-3.072 0-6.144 1.024-9.216 1.024 3.072-1.024 6.144-1.024 9.216-1.024z m-16.384 1.024c-3.072 0-6.144 0-9.216 1.024 3.072 0 6.144-1.024 9.216-1.024z m129.024-37.888c2.048-1.024 5.12-3.072 7.168-4.096-2.048 1.024-4.096 2.048-7.168 4.096z m13.312-8.192c2.048-2.048 5.12-3.072 7.168-5.12-3.072 2.048-5.12 4.096-7.168 5.12z m11.264-8.192c2.048-2.048 4.096-3.072 7.168-5.12-2.048 2.048-5.12 3.072-7.168 5.12z m11.264-9.216c2.048-2.048 5.12-4.096 7.168-6.144-2.048 2.048-4.096 4.096-7.168 6.144z m11.264-9.216c3.072-3.072 7.168-6.144 10.24-10.24l-10.24 10.24zM257.024 11.264h-5.12l-4.096 3.072-192.512 99.328-11.264 6.144v191.488l29.696-15.36 162.816-87.04V1013.76h233.472V11.264h-20.48z" p-id="86747"></path></svg>