<?xml version="1.0" standalone="no"?><!DOCTYPE svg PUBLIC "-//W3C//DTD SVG 1.1//EN" "http://www.w3.org/Graphics/SVG/1.1/DTD/svg11.dtd"><svg t="1623324130513" class="icon" viewBox="0 0 1024 1024" version="1.1" xmlns="http://www.w3.org/2000/svg" p-id="22924" xmlns:xlink="http://www.w3.org/1999/xlink" width="500" height="500"><defs><style type="text/css"></style></defs><path d="M365.006 485.574c0 39.639 33.033 72.671 72.671 72.671 39.64 0 72.671-33.032 72.671-72.67 0-39.64-33.032-72.672-72.67-72.672-41.29 0-72.672 33.032-72.672 72.671z m325.368-72.67c-39.639 0-72.67 33.031-72.67 72.67s33.031 72.671 72.67 72.671 72.671-33.032 72.671-72.67c0-39.64-33.032-72.672-72.67-72.672z m279.123 14.864h-4.955C914.994 256 759.742 178.374 693.677 146.994c-3.303-1.652-4.954-3.304-8.258-4.955 8.258-8.258 18.168-19.82 21.471-34.684 3.304-16.516-1.651-33.032-13.213-44.594-9.91-11.561-31.38-34.684-158.554-18.167C411.252 57.806 118.916 156.904 61.11 427.768h-6.607c-21.47 0-37.987 16.516-37.987 37.987v120.568c0 21.47 16.516 37.987 37.987 37.987h6.607c42.942 211.406 221.316 303.896 393.084 322.064v1.652c0 21.47 16.516 37.987 37.987 37.987h155.251c21.471 0 37.987-16.516 37.987-37.987v-90.839c0-21.47-16.516-37.987-37.987-37.987H492.181c-21.471 0-37.987 16.516-37.987 37.987v4.955c-99.097-11.561-265.91-61.11-310.504-242.787 11.562-6.607 21.471-19.82 21.471-34.684V464.103c0-14.864-8.258-26.426-19.82-33.032 66.065-257.652 396.388-305.548 399.691-307.2 21.471-3.303 37.987-3.303 52.852-4.955-3.303 8.258-4.955 16.516-4.955 26.426 0 13.213 4.955 33.032 26.426 51.2 8.258 8.258 19.82 13.213 39.639 23.123C716.8 247.742 835.716 307.2 880.31 431.07c-11.562 6.606-19.82 18.168-19.82 33.032v120.568c0 21.47 16.516 37.987 37.987 37.987h72.671c21.471 0 37.987-16.516 37.987-37.987V464.103c-1.651-19.82-18.167-36.335-39.638-36.335z" p-id="22925"></path></svg>