<?xml version="1.0" standalone="no"?><!DOCTYPE svg PUBLIC "-//W3C//DTD SVG 1.1//EN" "http://www.w3.org/Graphics/SVG/1.1/DTD/svg11.dtd"><svg t="1606651717996" class="icon" viewBox="0 0 1024 1024" version="1.1" xmlns="http://www.w3.org/2000/svg" p-id="21350" xmlns:xlink="http://www.w3.org/1999/xlink" width="500" height="500"><defs><style type="text/css"></style></defs><path d="M810.666667 896H213.333333c-21.333333 0-42.666667 21.333333-42.666666 42.666667s21.333333 42.666667 42.666666 42.666666h597.333334c21.333333 0 42.666667-21.333333 42.666666-42.666666s-21.333333-42.666667-42.666666-42.666667z m128-853.333333H85.333333C38.4 42.666667 0 81.066667 0 128v597.333333c0 46.933333 38.4 85.333333 85.333333 85.333334h853.333334c46.933333 0 85.333333-38.4 85.333333-85.333334V128c0-46.933333-38.4-85.333333-85.333333-85.333333z m-64 294.4l-243.2 243.2c-17.066667 17.066667-42.666667 17.066667-59.733334 0v-4.266667l-209.066666-213.333333L213.333333 512c-17.066667 17.066667-42.666667 17.066667-59.733333 0s-17.066667-42.666667 0-59.733333l179.2-179.2c12.8-12.8 29.866667-17.066667 46.933333-8.533334 4.266667 0 8.533333 4.266667 12.8 8.533334l209.066667 209.066666L810.666667 273.066667c17.066667-17.066667 42.666667-17.066667 59.733333 0 21.333333 17.066667 21.333333 46.933333 4.266667 64z" p-id="21351"></path></svg>