<?xml version="1.0" standalone="no"?><!DOCTYPE svg PUBLIC "-//W3C//DTD SVG 1.1//EN" "http://www.w3.org/Graphics/SVG/1.1/DTD/svg11.dtd"><svg t="1624353762830" class="icon" viewBox="0 0 1024 1024" version="1.1" xmlns="http://www.w3.org/2000/svg" p-id="33675" xmlns:xlink="http://www.w3.org/1999/xlink" width="500" height="500"><defs><style type="text/css"></style></defs><path d="M863.744 118.784h-154.624c-16.896-49.664-63.488-85.504-118.784-85.504H443.904c-55.296 0-102.4 35.84-118.784 85.504H170.496C93.184 118.784 30.72 181.76 30.72 258.56v608.768c0 22.016 17.92 39.936 39.936 39.936s39.936-17.92 39.936-39.936V258.56c0-33.28 27.136-60.416 60.416-60.416h154.624c0 0.512 0 0.512 0.512 1.024 1.024 2.56 2.048 5.632 3.072 8.192 1.024 2.56 2.56 5.12 3.584 7.68 0.512 0.512 0.512 1.024 1.024 1.536 1.536 2.56 2.56 5.12 4.096 7.168 0 0.512 0.512 1.024 0.512 1.024 1.536 2.048 3.072 4.608 4.608 6.656 0 0.512 0.512 0.512 0.512 1.024 1.536 2.048 3.584 4.608 5.12 6.656 0.512 0.512 1.024 1.024 1.024 1.536 2.048 2.048 3.584 4.096 5.632 6.144 2.048 2.048 4.096 4.096 6.144 5.632 0.512 0.512 1.024 1.024 1.536 1.024 2.048 2.048 4.096 3.584 6.656 5.12l1.024 1.024c2.048 1.536 4.096 3.072 6.656 4.608 0.512 0 0.512 0.512 1.024 0.512 2.56 1.536 4.608 3.072 7.168 4.096 0.512 0.512 1.024 0.512 1.536 1.024 2.56 1.536 5.12 2.56 7.68 3.584 2.56 1.024 5.632 2.048 8.192 3.072 0.512 0 1.024 0.512 1.536 0.512 2.56 1.024 5.632 1.536 8.192 2.56 0.512 0 1.024 0 1.536 0.512l7.68 1.536h1.536c3.072 0.512 5.632 1.024 8.704 1.024h2.048c3.072 0 6.144 0.512 9.216 0.512h146.432c3.072 0 6.144 0 9.216-0.512h2.048c3.072-0.512 5.632-0.512 8.704-1.024h1.536l7.68-1.536c0.512 0 1.024 0 1.536-0.512 2.56-0.512 5.632-1.536 8.192-2.56 0.512 0 1.024-0.512 1.536-0.512 2.56-1.024 5.632-2.048 8.192-3.072 2.56-1.024 5.12-2.56 7.68-3.584 0.512-0.512 1.024-0.512 1.536-1.024 2.56-1.536 5.12-2.56 7.168-4.096 0.512 0 0.512-0.512 1.024-0.512 2.048-1.536 4.608-3.072 6.656-4.608l1.024-1.024c2.048-1.536 4.608-3.584 6.656-5.12 0.512-0.512 1.024-1.024 1.536-1.024 2.048-2.048 4.096-3.584 6.144-5.632 2.048-2.048 4.096-4.096 5.632-6.144 0.512-0.512 1.024-1.024 1.024-1.536 2.048-2.048 3.584-4.096 5.12-6.656 0-0.512 0.512-0.512 0.512-1.024 1.536-2.048 3.072-4.096 4.608-6.656 0-0.512 0.512-1.024 0.512-1.024 1.536-2.56 3.072-4.608 4.096-7.168 0.512-0.512 0.512-1.024 1.024-1.536 1.536-2.56 2.56-5.12 3.584-7.68 1.024-2.56 2.048-5.632 3.072-8.192 0-0.512 0-0.512 0.512-1.024h154.624c33.28 0 60.416 27.136 60.416 60.416v608.768c0 32.768-26.624 59.392-59.392 59.392H289.28c-22.016 0-39.936 17.92-39.936 39.936s17.92 39.936 39.936 39.936h575.488c76.8 0 138.752-62.464 138.752-138.752v-609.28c0-76.8-62.464-139.776-139.776-139.776zM443.904 204.8c-25.088 0-46.08-20.48-46.08-46.08s20.48-46.08 46.08-46.08h146.432c25.088 0 46.08 20.48 46.08 46.08s-20.48 46.08-46.08 46.08H443.904z" p-id="33676"></path><path d="M406.528 745.472c7.68 7.68 17.408 11.776 28.16 11.776s20.48-4.096 28.16-11.776l299.52-299.52c15.36-15.36 15.36-40.448 0-56.32-15.36-15.36-40.448-15.36-56.32 0l-271.36 271.36-105.984-105.984c-15.36-15.36-40.448-15.36-56.32 0-15.36 15.36-15.36 40.448 0 56.32l134.144 134.144z" p-id="33677"></path></svg>