<?xml version="1.0" standalone="no"?><!DOCTYPE svg PUBLIC "-//W3C//DTD SVG 1.1//EN" "http://www.w3.org/Graphics/SVG/1.1/DTD/svg11.dtd"><svg t="1600998731996" class="icon" viewBox="0 0 1126 1024" version="1.1" xmlns="http://www.w3.org/2000/svg" p-id="1591" xmlns:xlink="http://www.w3.org/1999/xlink" width="549.8046875" height="500"><defs><style type="text/css"></style></defs><path d="M537.6 0C240.9984 0 2.56 223.744 2.56 496.128c0 82.688 24.3712 165.376 63.2832 233.472 4.864 14.592 9.728 29.184 4.864 38.912l-68.096 194.56c-9.728 14.592 9.728 29.184 29.184 29.184l189.696-77.824c14.592-4.864 24.32 0 38.912 4.864 82.688 43.776 179.968 72.96 282.112 72.96 291.84 0 535.04-218.88 535.04-496.128C1072.64 223.744 834.3552 0 537.6 0zM270.1824 583.68c-53.504 0-92.416-38.912-92.416-87.552s38.912-87.552 92.416-87.552 87.552 38.912 87.552 87.552-38.912 87.552-87.552 87.552z m267.52 0c-48.64 0-87.552-38.912-87.552-87.552s38.912-87.552 87.552-87.552 87.552 38.912 87.552 87.552-38.912 87.552-87.552 87.552z m267.52 0c-48.64 0-87.552-38.912-87.552-87.552s38.912-87.552 87.552-87.552 92.416 38.912 92.416 87.552-38.912 87.552-92.416 87.552z" p-id="1592"></path></svg>