<?xml version="1.0" standalone="no"?><!DOCTYPE svg PUBLIC "-//W3C//DTD SVG 1.1//EN" "http://www.w3.org/Graphics/SVG/1.1/DTD/svg11.dtd"><svg t="1606992016362" class="icon" viewBox="0 0 1024 1024" version="1.1" xmlns="http://www.w3.org/2000/svg" p-id="55614" xmlns:xlink="http://www.w3.org/1999/xlink" width="500" height="500"><defs><style type="text/css"></style></defs><path d="M701.138824 302.772706H302.772706V701.138824H701.138824V302.772706z m298.797176 149.383529v-99.599059h-99.599059v-149.383529a99.900235 99.900235 0 0 0-99.599059-99.599059h-149.383529V3.975529H551.755294V103.604706h-99.599059V3.975529h-99.599059V103.604706h-149.383529a99.900235 99.900235 0 0 0-99.599059 99.599059v149.383529H3.975529v99.599059H103.604706v99.599059H3.975529v99.599059H103.604706v149.383529a99.900235 99.900235 0 0 0 99.599059 99.599059h149.383529v99.599059h99.599059v-99.599059h99.599059v99.599059h99.599059v-99.599059h149.383529a99.900235 99.900235 0 0 0 99.599059-99.599059v-149.383529h99.599059V551.755294h-99.599059v-99.599059h99.599059z m-199.198118 348.581647H203.173647V203.173647h597.564235v597.564235z" p-id="55615"></path></svg>