<?xml version="1.0" standalone="no"?><!DOCTYPE svg PUBLIC "-//W3C//DTD SVG 1.1//EN" "http://www.w3.org/Graphics/SVG/1.1/DTD/svg11.dtd"><svg t="1597229985641" class="icon" viewBox="0 0 1024 1024" version="1.1" xmlns="http://www.w3.org/2000/svg" p-id="3767" xmlns:xlink="http://www.w3.org/1999/xlink" width="200" height="200"><defs><style type="text/css"></style></defs><path d="M844.055273 179.479273c-183.063273-182.458182-481.047273-182.458182-664.110546 0s-183.063273 479.418182 0 661.876363a463.732364 463.732364 0 0 0 664.110546 0c183.063273-182.458182 183.063273-479.418182 0-661.876363zM796.392727 569.716364h-210.245818a17.733818 17.733818 0 0 0-16.477091 16.477091v210.245818c0 12.381091-8.238545 20.619636-20.619636 20.619636h-74.193455c-12.381091 0-20.619636-8.238545-20.619636-20.619636v-210.245818a17.733818 17.733818 0 0 0-16.477091-16.477091H227.560727c-12.381091 0-20.619636-8.238545-20.619636-20.619637v-74.193454c0-12.381091 8.238545-20.619636 20.619636-20.619637h210.245818a17.733818 17.733818 0 0 0 16.477091-16.477091V227.560727c0-12.381091 8.238545-20.619636 20.619637-20.619636h74.193454c12.381091 0 20.619636 8.238545 20.619637 20.619636v210.245818c0 8.238545 8.238545 16.477091 16.477091 16.477091h210.245818c12.381091 0 20.619636 8.238545 20.619636 20.619637v74.193454c0 12.381091-8.238545 20.619636-20.619636 20.619637z" p-id="3768"></path></svg>
