<?xml version="1.0" standalone="no"?><!DOCTYPE svg PUBLIC "-//W3C//DTD SVG 1.1//EN" "http://www.w3.org/Graphics/SVG/1.1/DTD/svg11.dtd"><svg t="1614070866581" class="icon" viewBox="0 0 1024 1024" version="1.1" xmlns="http://www.w3.org/2000/svg" p-id="2378" xmlns:xlink="http://www.w3.org/1999/xlink" width="500" height="500"><defs><style type="text/css"></style></defs><path d="M887.808 230.912V59.904C887.808 26.624 861.184 0 827.904 0H189.952c-33.28 0-59.904 26.624-59.904 59.904V235.52L0 303.104v666.624C0 999.936 26.624 1024 59.904 1024h904.192c33.28 0 59.904-24.064 59.904-54.272V301.056l-136.192-70.144zM130.048 371.712L65.024 337.92h-7.168l3.584-2.048-3.584-2.048h7.168l65.024-33.792v71.68z m697.856 35.84L512 569.856 189.952 402.944V120.32c0-27.648 22.528-50.688 50.688-50.688h537.088c27.648 0 50.688 22.528 50.688 50.688v287.232h-0.512z m59.904-31.232V296.448l77.824 39.936-77.824 39.936z m-202.24-234.496h-353.28c-24.064 0-43.52 17.92-43.52 39.936s19.456 39.936 43.52 39.936h353.28c24.064 0 43.52-17.92 43.52-39.936s-19.456-39.936-43.52-39.936z m-159.744 140.288H332.288c-24.064 0-43.52 17.92-43.52 39.936s19.456 39.936 43.52 39.936h193.536c24.064 0 43.52-17.92 43.52-39.936-0.512-22.016-19.968-39.936-43.52-39.936z" p-id="2379"></path></svg>