<?xml version="1.0" standalone="no"?><!DOCTYPE svg PUBLIC "-//W3C//DTD SVG 1.1//EN" "http://www.w3.org/Graphics/SVG/1.1/DTD/svg11.dtd"><svg t="1624353581784" class="icon" viewBox="0 0 1024 1024" version="1.1" xmlns="http://www.w3.org/2000/svg" p-id="42312" xmlns:xlink="http://www.w3.org/1999/xlink" width="500" height="500"><defs><style type="text/css"></style></defs><path d="M128 170.666667c-23.509333 0-42.666667 19.157333-42.666667 42.666666v682.666667c0 23.552 19.157333 42.666667 42.666667 42.666667h768c23.552 0 42.666667-19.114667 42.666667-42.666667V213.333333c0-23.509333-19.114667-42.666667-42.666667-42.666666H128z m768 853.333333H128c-70.570667 0-128-57.429333-128-128V213.333333c0-70.570667 57.429333-128 128-128h768c70.570667 0 128 57.429333 128 128v682.666667c0 70.570667-57.429333 128-128 128z" p-id="42313"></path><path d="M301.3376 256h-5.341867a40.0896 40.0896 0 0 1-39.970133-39.978667V40.021333c0-22.016 17.962667-40.021333 39.970133-40.021333h5.341867c22.016 0 39.970133 18.005333 39.970133 40.021333v176A40.0896 40.0896 0 0 1 301.346133 256M728.004267 256h-5.341867a40.0896 40.0896 0 0 1-39.970133-39.978667V40.021333c0-22.016 17.962667-40.021333 39.970133-40.021333h5.341867c22.016 0 39.970133 18.005333 39.970133 40.021333v176A40.0896 40.0896 0 0 1 728.0128 256M298.666667 725.333333H213.333333c-23.466667 0-42.666667-19.2-42.666666-42.666666s19.2-42.666667 42.666666-42.666667h85.333334c23.466667 0 42.666667 19.2 42.666666 42.666667s-19.2 42.666667-42.666666 42.666666M554.666667 725.333333H469.333333c-23.466667 0-42.666667-19.2-42.666666-42.666666s19.2-42.666667 42.666666-42.666667h85.333334c23.466667 0 42.666667 19.2 42.666666 42.666667s-19.2 42.666667-42.666666 42.666666M298.666667 512H213.333333c-23.466667 0-42.666667-19.2-42.666666-42.666667s19.2-42.666667 42.666666-42.666666h85.333334c23.466667 0 42.666667 19.2 42.666666 42.666666s-19.2 42.666667-42.666666 42.666667M810.666667 512H725.333333c-23.466667 0-42.666667-19.2-42.666666-42.666667s19.2-42.666667 42.666666-42.666666h85.333334c23.466667 0 42.666667 19.2 42.666666 42.666666s-19.2 42.666667-42.666666 42.666667M554.666667 512H469.333333c-23.466667 0-42.666667-19.2-42.666666-42.666667s19.2-42.666667 42.666666-42.666666h85.333334c23.466667 0 42.666667 19.2 42.666666 42.666666s-19.2 42.666667-42.666666 42.666667" p-id="42314"></path></svg>