<?xml version="1.0" standalone="no"?><!DOCTYPE svg PUBLIC "-//W3C//DTD SVG 1.1//EN" "http://www.w3.org/Graphics/SVG/1.1/DTD/svg11.dtd"><svg t="1603975741965" class="icon" viewBox="0 0 1024 1024" version="1.1" xmlns="http://www.w3.org/2000/svg" p-id="3114" xmlns:xlink="http://www.w3.org/1999/xlink" width="500" height="500"><defs><style type="text/css"></style></defs><path d="M856.64 136.576h-103.424v102.368s0 68.288-68.864 68.288c-68.928 0-68.928-68.288-68.928-68.288V136.576h-206.752v102.368s0 68.288-68.928 68.288S270.72 238.944 270.72 238.944V136.576H167.36C113.472 136.576 64 185.152 64 238.944V918.08C64 976.576 108 1024 167.36 1024h689.28c59.36 0 103.36-47.424 103.36-105.952V238.944c-0.064-90.144-68.928-102.368-103.36-102.368z m-241.28 716.736H236.288v-68.192H615.36v68.192z m172.32-170.624H236.288v-68.256h551.392v68.256z m0-170.688H236.288v-68.288h551.392V512z m-103.36-238.912c19.008 0 34.496-15.328 34.496-34.144v-204.8C718.816 15.296 703.328 0 684.32 0c-19.072 0-34.496 15.296-34.496 34.112v204.8c0 18.88 15.424 34.176 34.496 34.176z m-344.64 0c19.008 0 34.464-15.328 34.464-34.144v-204.8C374.144 15.296 358.656 0 339.68 0 320.64 0 305.248 15.296 305.248 34.112v204.8c0 18.88 15.424 34.176 34.432 34.176z m0 0" p-id="3115"></path></svg>