<?xml version="1.0" standalone="no"?><!DOCTYPE svg PUBLIC "-//W3C//DTD SVG 1.1//EN" "http://www.w3.org/Graphics/SVG/1.1/DTD/svg11.dtd"><svg t="1598925785476" class="icon" viewBox="0 0 1024 1024" version="1.1" xmlns="http://www.w3.org/2000/svg" p-id="20786" xmlns:xlink="http://www.w3.org/1999/xlink" width="200" height="200"><defs><style type="text/css"></style></defs><path d="M882.37056 219.88352a45.7216 45.7216 0 0 1 0 91.42272 45.7216 45.7216 0 0 1 0-91.42272z m-731.41248 0a45.7216 45.7216 0 0 0 0 91.42272 45.7216 45.7216 0 0 0 0-91.42272z m502.84544 137.13408a45.7216 45.7216 0 0 0 91.42272 0c0-25.23136-20.48-45.71136-45.71136-45.71136-25.23136 0-45.71136 20.48-45.71136 45.71136z m266.65984-15.2064a245.1968 245.1968 0 0 1-25.94816 75.17184c-0.7168-20.09088-2.10944-24.04352-4.21888-57.40544 0 0 7.3216-9.43104 7.3216-17.79712h-30.47424c0 8.36608 7.3216 17.79712 7.3216 17.79712-2.07872 33.45408-3.4816 37.3248-4.21888 57.55904-8.96-16.67072-20.48-42.71104-25.91744-75.32544-19.6096 0.09216-68.59776 2.02752-68.59776 53.32992v12.50304c54.04672 14.55104 60.94848 58.09152 60.94848 78.92992v101.09952c0 32.44032-11.13088 53.504-25.41568 66.63168v48.09728a35.55328 35.55328 0 0 0 35.59424 35.56352 35.52256 35.52256 0 0 0 35.5328-35.56352 35.52256 35.52256 0 0 0 35.5328 35.56352 35.55328 35.55328 0 0 0 35.59424-35.56352V549.57056s35.5328 0 35.5328-53.32992v-101.09952c-0.02048-51.27168-48.9472-53.23776-68.58752-53.32992zM196.66944 587.6736v-101.09952c0-20.82816 6.90176-64.36864 60.94848-78.92992v-12.50304c0-51.31264-48.98816-53.248-68.59776-53.32992a246.24128 246.24128 0 0 1-25.91744 75.32544c-0.74752-20.23424-2.14016-24.10496-4.21888-57.55904 0 0 7.3216-9.43104 7.3216-17.79712h-30.47424c0 8.36608 7.3216 17.79712 7.3216 17.79712-2.10944 33.36192-3.51232 37.3248-4.21888 57.40544a244.85888 244.85888 0 0 1-25.94816-75.17184c-19.64032 0.09216-68.56704 2.05824-68.56704 53.32992v101.09952c0 53.32992 35.5328 53.32992 35.5328 53.32992v152.82176a35.55328 35.55328 0 0 0 35.59424 35.56352 35.52256 35.52256 0 0 0 35.5328-35.56352 35.52256 35.52256 0 0 0 35.5328 35.56352 35.55328 35.55328 0 0 0 35.59424-35.56352v-48.09728c-14.30528-13.11744-25.43616-34.19136-25.43616-66.62144z m137.14432-276.36736a45.7216 45.7216 0 0 0 0 91.42272 45.7216 45.7216 0 0 0 0-91.42272z m403.79392 121.92768a245.1968 245.1968 0 0 1-25.94816 75.17184c-0.7168-20.09088-2.10944-24.04352-4.21888-57.40544 0 0 7.3216-9.43104 7.3216-17.79712h-30.47424c0 8.36608 7.3216 17.79712 7.3216 17.79712-2.07872 33.45408-3.4816 37.3248-4.21888 57.55904-8.96-16.67072-20.48-42.71104-25.91744-75.32544-19.6096 0.09216-68.59776 2.02752-68.59776 53.32992v12.50304c54.04672 14.55104 60.94848 58.09152 60.94848 78.92992v101.09952c0 32.44032-11.13088 53.504-25.41568 66.63168v48.09728a35.55328 35.55328 0 0 0 35.59424 35.56352 35.52256 35.52256 0 0 0 35.5328-35.56352 35.52256 35.52256 0 0 0 35.5328 35.56352 35.55328 35.55328 0 0 0 35.59424-35.56352V641.00352s35.5328 0 35.5328-53.32992v-101.09952c-0.01024-51.28192-48.9472-53.248-68.58752-53.34016z m-358.08256 245.8624v-101.09952c0-20.82816 6.90176-64.36864 60.94848-78.92992v-12.50304c0-51.31264-48.98816-53.248-68.59776-53.32992a246.24128 246.24128 0 0 1-25.91744 75.32544c-0.74752-20.23424-2.14016-24.10496-4.21888-57.55904 0 0 7.3216-9.43104 7.3216-17.79712h-30.47424c0 8.36608 7.3216 17.79712 7.3216 17.79712-2.10944 33.36192-3.51232 37.3248-4.21888 57.40544a244.85888 244.85888 0 0 1-25.94816-75.17184c-19.64032 0.09216-68.56704 2.05824-68.56704 53.32992v101.09952c0 53.32992 35.5328 53.32992 35.5328 53.32992v152.82176a35.55328 35.55328 0 0 0 35.59424 35.56352 35.52256 35.52256 0 0 0 35.5328-35.56352 35.52256 35.52256 0 0 0 35.5328 35.56352 35.55328 35.55328 0 0 0 35.59424-35.56352v-48.09728c-14.30528-13.11744-25.43616-34.18112-25.43616-66.62144z m91.42272-230.656a45.7216 45.7216 0 0 0 91.42272 0 45.7216 45.7216 0 0 0-91.42272 0z m45.71136-198.08256a45.7216 45.7216 0 0 1 0 91.42272 45.7216 45.7216 0 0 1 0-91.42272zM333.81376 158.9248a45.7216 45.7216 0 0 1 0 91.42272 45.7216 45.7216 0 0 1 0-91.42272z m365.70112 0a45.7216 45.7216 0 0 1 0 91.42272 45.7216 45.7216 0 0 1 0-91.42272zM516.6592 97.97632a45.7216 45.7216 0 0 1 0 91.42272 45.7216 45.7216 0 0 1 0-91.42272z m38.10304 426.69056a245.1968 245.1968 0 0 1-25.94816 75.17184c-0.7168-20.09088-2.10944-24.04352-4.21888-57.40544 0 0 7.3216-9.43104 7.3216-17.79712h-30.47424c0 8.36608 7.3216 17.79712 7.3216 17.79712-2.07872 33.45408-3.4816 37.3248-4.21888 57.55904-8.96-16.67072-20.48-42.71104-25.91744-75.32544-19.6096 0.09216-68.59776 2.02752-68.59776 53.32992v101.09952c0 53.32992 35.5328 53.32992 35.5328 53.32992V885.248a35.55328 35.55328 0 0 0 35.59424 35.56352 35.52256 35.52256 0 0 0 35.5328-35.56352 35.52256 35.52256 0 0 0 35.5328 35.56352 35.55328 35.55328 0 0 0 35.59424-35.56352V732.42624s35.5328 0 35.5328-53.32992v-101.09952c-0.02048-51.28192-48.9472-53.248-68.58752-53.32992z" fill="#333333" p-id="20787"></path></svg>