<svg t="1597231559019" class="icon" viewBox="0 0 1024 1024" version="1.1" xmlns="http://www.w3.org/2000/svg" p-id="1190" width="200" height="200"><path d="M261.034667 85.333333H143.914667A57.173333 57.173333 0 0 0 85.333333 143.914667v117.12A57.173333 57.173333 0 0 0 143.914667 319.573333h117.12A57.173333 57.173333 0 0 0 319.573333 261.034667V143.914667A57.173333 57.173333 0 0 0 261.034667 85.333333z m0 619.093334H143.914667A57.173333 57.173333 0 0 0 85.333333 762.965333v117.12A57.173333 57.173333 0 0 0 143.914667 938.666667h117.12a57.173333 57.173333 0 0 0 58.538666-58.581334v-117.12a57.173333 57.173333 0 0 0-58.538666-58.538666z m0-309.546667H143.914667A57.173333 57.173333 0 0 0 85.333333 453.418667v117.162666a57.173333 57.173333 0 0 0 58.581334 58.538667h117.12a57.173333 57.173333 0 0 0 58.538666-58.538667v-117.162666a57.173333 57.173333 0 0 0-58.538666-58.538667zM570.581333 85.333333h-117.162666a57.173333 57.173333 0 0 0-58.538667 58.581334v117.12a57.173333 57.173333 0 0 0 58.538667 58.538666h117.162666a57.173333 57.173333 0 0 0 58.538667-58.538666V143.914667A57.173333 57.173333 0 0 0 570.581333 85.333333z m0 619.093334h-117.162666a57.173333 57.173333 0 0 0-58.538667 58.538666v117.12A57.173333 57.173333 0 0 0 453.418667 938.666667h117.162666a57.173333 57.173333 0 0 0 58.538667-58.581334v-117.12a57.173333 57.173333 0 0 0-58.538667-58.538666z m0-309.546667h-117.162666a57.173333 57.173333 0 0 0-58.538667 58.538667v117.162666a57.173333 57.173333 0 0 0 58.538667 58.538667h117.162666a57.173333 57.173333 0 0 0 58.538667-58.538667v-117.162666a57.173333 57.173333 0 0 0-58.538667-58.538667zM880.085333 85.333333h-117.12a57.173333 57.173333 0 0 0-58.538666 58.581334v117.12a57.173333 57.173333 0 0 0 58.538666 58.538666h117.12A57.173333 57.173333 0 0 0 938.666667 261.034667V143.914667A57.173333 57.173333 0 0 0 880.085333 85.333333z m0 619.093334h-117.12a57.173333 57.173333 0 0 0-58.538666 58.538666v117.12A57.173333 57.173333 0 0 0 762.965333 938.666667h117.12A57.173333 57.173333 0 0 0 938.666667 880.085333v-117.12a57.173333 57.173333 0 0 0-58.581334-58.538666z m0-309.546667h-117.12a57.173333 57.173333 0 0 0-58.538666 58.538667v117.162666a57.173333 57.173333 0 0 0 58.538666 58.538667h117.12A57.173333 57.173333 0 0 0 938.666667 570.581333v-117.162666a57.173333 57.173333 0 0 0-58.581334-58.538667z" p-id="1191"></path></svg>
