<?xml version="1.0" standalone="no"?><!DOCTYPE svg PUBLIC "-//W3C//DTD SVG 1.1//EN" "http://www.w3.org/Graphics/SVG/1.1/DTD/svg11.dtd"><svg t="1631241334676" class="icon" viewBox="0 0 1024 1024" version="1.1" xmlns="http://www.w3.org/2000/svg" p-id="17619" xmlns:xlink="http://www.w3.org/1999/xlink" width="200" height="200"><defs><style type="text/css"></style></defs><path d="M853.7 440.5c-5.6-0.7-11.2-0.4-16.7 0.7-63.2 14.1-90.7 57.8-97.8 95.7-7 37.9 24.2 90.1 24.6 91.1 0.4 0.6-15 11.2-46.4 31.9-9.4-14.8-24.6-23.6-45.7-26.6-6.9-7.3-13.5-14.9-20-22.5-7.2-8.4-39.5-38.1-66.8-24-18.1 9.4-23.5 29.8-16.2 61l16.2 36.8c-4.5 17.4-5.5 33.2-3 47.5 3.9 22.5 6.9 28.8 17.8 48.9 11 20.1 16.3 25.9 39.4 58.8 15.3 21.9 39.8 29.7 73.2 23.3v98.7H169.9c-59.6 0-107.9-48.4-107.9-108V170.2c0-59.6 48.3-107.9 107.9-107.9h575.7c59.6 0 107.9 48.3 107.9 107.9v270.3h0.2zM680 482.1c19.4 0 35.3-15.6 35.3-35 0-9.3-3.8-18.3-10.4-24.7-6.6-6.6-15.6-10.3-24.9-10.3H222.4c-19.4 0-35.3 15.7-35.3 35s15.7 35 35.3 35H680zM431.9 691.9c19.4 0 35.3-15.6 35.3-35 0-9.3-3.8-18.3-10.4-24.7-6.6-6.6-15.6-10.3-24.9-10.3H220.7c-19.4 0-35.3 15.6-35.3 35 0 19.3 15.7 35 35.3 35h211.2zM224.1 206.2c-19.8 0-36 16.2-36 36s16.2 36 36 36h449.8c19.8 0 36-16.2 36-36s-16.2-36-36-36H224.1z m732.8 750.6c-3.1 3.2-7.4 4.9-11.9 4.9H771.8c-9.1 0-16.6-7.9-16.6-17.4V781.2l-39.1 27.1c-6 3.5-12.9 5.3-19.8 5.3-15.2 0-29.7-8.2-37-20.8l-35.8-63.7c-7.4-12.9-8.2-28.8-1.5-42.3l4.1-6.9-21.4-37.9c-4.1-8.4-3.9-14.5 4.5-18.1 8.2-3.5 13.9 5.8 16.9 11.5l18.8 32c1.7-2.1 4.6-3.7 8.7-4.2 15.3-2.4 33.9 5.5 42.9 20.4l14.5 27 26-27c30.5-19.7 55-33.5 91.6-33.5 2.5 0 12.9 0.4 12.9 0.4h16.3C943.1 661 963.2 723 961.9 754.4v190.2c-0.2 4.5-1.9 8.9-5 12.2z m-111-329c-40.1 0-72.5-34-72.5-75.9S805.9 476 846 476s72.7 34 72.7 76c0.3 19.8-7.2 38.9-20.7 53.3-13.6 14.4-32.3 22.5-52.1 22.5z" p-id="17620"></path></svg>