<?xml version="1.0" standalone="no"?><!DOCTYPE svg PUBLIC "-//W3C//DTD SVG 1.1//EN" "http://www.w3.org/Graphics/SVG/1.1/DTD/svg11.dtd"><svg t="1601381260123" class="icon" viewBox="0 0 1024 1024" version="1.1" xmlns="http://www.w3.org/2000/svg" p-id="4096" xmlns:xlink="http://www.w3.org/1999/xlink" width="500" height="500"><defs><style type="text/css"></style></defs><path d="M840.533333 981.333333c-8.533333 0-12.8 0-17.066666-4.266666L512 853.333333l-307.2 123.733334c-21.333333 8.533333-38.4 4.266667-51.2-8.533334-17.066667-8.533333-25.6-25.6-25.6-46.933333V102.4C128 68.266667 153.6 42.666667 183.466667 42.666667h657.066666c29.866667 0 55.466667 25.6 55.466667 59.733333v823.466667c0 17.066667-8.533333 38.4-21.333333 46.933333-12.8 4.266667-21.333333 8.533333-34.133334 8.533333z m-128-644.266666c17.066667 0 34.133333-12.8 34.133334-34.133334s-12.8-34.133333-34.133334-34.133333H315.733333c-17.066667 4.266667-29.866667 17.066667-29.866666 34.133333s12.8 34.133333 29.866666 34.133334h396.8z m0 157.866666c17.066667 0 34.133333-12.8 34.133334-34.133333 0-17.066667-12.8-34.133333-34.133334-34.133333H315.733333c-17.066667 0-34.133333 12.8-34.133333 34.133333 0 17.066667 12.8 34.133333 34.133333 34.133333h396.8z" p-id="4097"></path></svg>