<?xml version="1.0" standalone="no"?><!DOCTYPE svg PUBLIC "-//W3C//DTD SVG 1.1//EN" "http://www.w3.org/Graphics/SVG/1.1/DTD/svg11.dtd"><svg t="1601382587991" class="icon" viewBox="0 0 1024 1024" version="1.1" xmlns="http://www.w3.org/2000/svg" p-id="4237" xmlns:xlink="http://www.w3.org/1999/xlink" width="500" height="500"><defs><style type="text/css"></style></defs><path d="M800.782 1023.095c-7.327 0-14.466-1.253-21.355-3.695L431.672 882.377 84.919 1019.025c-21.793 7.953-41.833 4.321-58.366-7.39C9.895 999.861 0 980.573 0 960.095L0 65.564c0-34.757 28.118-63 62.625-63l738.157 0c34.506 0 62.625 28.244 62.625 63l0 894.531c0 20.416-9.832 39.641-26.365 51.415C826.082 1019.15 813.683 1023.095 800.782 1023.095zM431.672 804.598l359.341 141.532L791.013 74.957 72.394 74.957l0 871.172L431.672 804.598z" p-id="4238"></path><path d="M659.438 323.327 211.671 323.327c-19.977 0-36.197-16.22-36.197-36.197 0-19.977 16.22-36.197 36.197-36.197l447.767 0c19.977 0 36.197 16.22 36.197 36.197C695.635 307.107 679.415 323.327 659.438 323.327z" p-id="4239"></path><path d="M659.438 492.476 211.671 492.476c-19.977 0-36.197-16.22-36.197-36.197s16.22-36.197 36.197-36.197l447.767 0c19.977 0 36.197 16.22 36.197 36.197S679.415 492.476 659.438 492.476z" p-id="4240"></path></svg>