<?xml version="1.0" standalone="no"?><!DOCTYPE svg PUBLIC "-//W3C//DTD SVG 1.1//EN" "http://www.w3.org/Graphics/SVG/1.1/DTD/svg11.dtd"><svg t="1623324252857" class="icon" viewBox="0 0 1024 1024" version="1.1" xmlns="http://www.w3.org/2000/svg" p-id="29047" xmlns:xlink="http://www.w3.org/1999/xlink" width="500" height="500"><defs><style type="text/css"></style></defs><path d="M931.2 358.4C870.4 188.8 704 64 512 64S153.6 188.8 92.8 358.4C57.6 374.4 32 406.4 32 448v128c0 54.4 41.6 96 96 96s96-41.6 96-96v-128c0-16-3.2-32-12.8-44.8C256 278.4 374.4 192 512 192c137.6 0 256 86.4 300.8 211.2-9.6 12.8-12.8 28.8-12.8 44.8v128c0 16 3.2 32 12.8 44.8-32 89.6-102.4 156.8-188.8 188.8-16-6.4-32-9.6-48-9.6h-128c-54.4 0-96 41.6-96 96s41.6 96 96 96h128c41.6 0 73.6-25.6 89.6-60.8 124.8-44.8 224-144 268.8-268.8 35.2-16 60.8-48 60.8-89.6v-128c-3.2-38.4-28.8-70.4-64-86.4z" p-id="29048"></path><path d="M384 448m-64 0a64 64 0 1 0 128 0 64 64 0 1 0-128 0Z" p-id="29049"></path><path d="M640 448m-64 0a64 64 0 1 0 128 0 64 64 0 1 0-128 0Z" p-id="29050"></path></svg>