<?xml version="1.0" standalone="no"?><!DOCTYPE svg PUBLIC "-//W3C//DTD SVG 1.1//EN" "http://www.w3.org/Graphics/SVG/1.1/DTD/svg11.dtd"><svg t="1606183906061" class="icon" viewBox="0 0 1024 1024" version="1.1" xmlns="http://www.w3.org/2000/svg" p-id="19605" xmlns:xlink="http://www.w3.org/1999/xlink" width="500" height="500"><defs><style type="text/css"></style></defs><path d="M618.245413 835.207648c-5.339805-1.940357-10.962015-4.418459-16.898401-7.01776-18.947012-8.33918-40.421548-17.770325-68.110167-17.770326-12.563486 0-30.662107 4.165472-59.164994 10.998493-20.733223 4.929141-44.222247 10.561942-61.385401 12.60114-12.283434 1.444972-21.037985 12.576429-19.593014 24.859864 1.469682 12.284611 12.62585 21.036808 24.861041 19.591836 19.76128-2.356904 44.59761-8.279169 66.508696-13.523662 19.154109-4.589079 40.858099-9.759441 48.773672-9.759441 18.281008 0 33.735613 6.784777 50.108035 13.983747 6.314102 2.780511 12.844714 5.644567 19.520058 8.085016a22.604155 22.604155 0 0 0 7.697886 1.37084c9.114617 0 17.698548-5.621033 20.999154-14.699173 4.24784-11.603309-1.709726-24.473911-13.316565-28.720574z" p-id="19606"></path><path d="M676.147821 781.032984c-16.544218-4.444346-35.653613-13.390697-54.127597-22.056996-28.185181-13.19419-54.805369-25.661188-78.209671-25.661187-17.153741 0-46.467365 8.255635-92.886486 21.740467-33.600294 9.748851-71.693179 20.817944-99.187645 25.529398-12.185769 2.087443-20.36845 13.668395-18.278654 25.842398 2.089796 12.176356 13.607207 20.356683 25.842397 18.270417 29.994926-5.123295 69.360985-16.559515 104.103843-26.656665 32.215334-9.347601 68.753815-19.957786 80.407722-19.957786 13.449531 0 36.718514 10.903181 59.212061 21.438058 20.235484 9.49351 41.174628 19.276485 61.554845 24.738666 1.943887 0.524802 3.88542 0.77779 5.802243 0.77779 9.867696 0 18.924655-6.603567 21.594558-16.604229 3.206472-11.946902-3.8713-24.207979-15.827616-27.400331zM345.851811 676.334915c102.269388-25.005773 256.820151-62.830373 263.994411-284.520537 0.811914-25.283471-8.583931-49.379665-26.464865-67.844236-18.389263-18.984666-44.075161-29.860783-71.108366-29.860784-26.704909 0-52.523773 11.252657-70.853024 30.880971-17.577349 18.839934-22.299393 43.749219-25.735319 61.931385-14.046111 74.095974-61.907851 110.610921-146.296305 111.5558-12.345799 0.122375-22.261739 10.270123-22.11583 22.627689 0.131789 12.355212 10.123037 22.406472 22.614746 22.128774 104.514506-1.177864 171.895128-53.738114 189.776061-147.983674 3.254716-17.199632 6.38588-31.049237 14.470896-39.706122 10.038316-10.766685 23.572568-16.666593 38.745946-16.666593 14.374407 0 28.344034 5.899908 38.347049 16.240632 9.371134 9.687663 14.309689 22.189961 13.884905 35.252363-6.055231 187.726273-130.174517 218.085972-229.892848 242.485751-18.996433 4.658503-36.950322 9.042839-52.427284 14.297922-11.715095 3.968965-17.991543 16.666593-14.020224 28.381688 3.167641 9.324067 11.870417 15.198088 21.205074 15.198088 2.367494 0 4.794999-0.389483 7.17426-1.188454 13.644861-4.616143 30.675051-8.792204 48.700717-13.210663z" p-id="19607"></path><path d="M281.760029 617.219342c4.417283-0.920169 9.018128-1.846222 13.76606-2.792278 86.937158-17.527928 232.445082-46.853319 239.413422-223.072771 0.485972-12.346976-9.11697-22.761831-21.474536-23.245449-12.332855-0.364773-22.761831 9.128737-23.245449 21.486302-5.572789 141.050634-119.992646 164.116051-203.531532 180.941497-4.843243 0.982534-9.52881 1.916823-14.031991 2.864056-12.102225 2.51105-19.871888 14.370877-17.358485 26.462511 2.208641 10.573708 11.506821 17.844457 21.885199 17.844457a21.027395 21.027395 0 0 0 4.577312-0.488325z" p-id="19608"></path><path d="M754.675198 573.894907c-39.730833-12.02927-75.347968-28.027505-74.799633-91.124986 0.121199-14.033168 0.922523-23.331348 1.795625-33.187277 1.201397-13.655451 2.560471-29.145358 2.160397-58.337783-1.299062-94.44089-78.13554-171.289134-171.266777-171.289134-85.056812 0-151.589042 57.925942-169.517044 147.56948-10.681964 53.386284-38.674168 55.170142-64.104725 52.586137-12.321088-1.262585-23.271337 7.743776-24.496268 20.053098-1.239051 12.283434 7.744953 23.258393 20.041331 24.496268 76.704688 7.659055 103.531973-43.797463 112.441846-88.346829 13.77665-68.83736 61.907851-111.591101 125.63486-111.591101 68.790292 0 125.552491 57.039897 126.511491 127.129252 0.37654 26.923773-0.813091 40.593344-1.990954 53.798124-0.908402 10.293657-1.832101 20.930906-1.966244 36.732635-0.874278 101.844604 74.446626 124.618202 106.601949 134.351756 2.14863 0.655415 4.332561 0.971943 6.484721 0.971943 9.613532 0 18.483398-6.238794 21.412171-15.915867 3.578305-11.835117-3.12175-24.313881-14.942746-27.895716zM717.796654 717.995514c-41.599412-8.835742-70.308218-24.106784-95.628167-37.570436-25.04578-13.328332-46.686229-24.821033-72.130907-24.821033-20.283729 0-43.965729 7.549623-79.787608 18.959956-38.006987 12.126935-90.069498 28.745284-161.993307 43.384445-12.102225 2.478103-19.931899 14.299099-17.454974 26.415444 2.463982 12.111638 14.275565 19.930723 26.401324 17.454974 74.277183-15.138077 127.664644-32.169443 166.654165-44.599963 30.663284-9.784151 52.853245-16.847803 66.181577-16.847803 14.276742 0 30.529141 8.645119 51.115279 19.581246 26.54841 14.116713 59.578011 31.692885 107.357382 41.841809 1.554403 0.315352 3.129987 0.487148 4.6738 0.487149 10.343078 0 19.628314-7.210737 21.862842-17.746792 2.569884-12.093988-5.160949-23.977349-17.251406-26.538996z" p-id="19609"></path><path d="M281.079904 383.959993c11.493878 4.491414 24.496268-1.188454 28.999449-12.684685 2.075676-5.303328 3.884243-12.489355 6.155249-21.594558 2.595771-10.305424 5.522192-21.982864 8.813385-30.419709 30.019636-76.790587 105.362898-128.368303 187.517999-128.368303 110.889796 0 201.12756 90.15422 201.334658 201.055782-0.157676 4.551425-1.774444 48.49362-4.552602 74.434859-5.304505 49.296121 26.424858 73.075786 41.698253 76.354036 1.601471 0.338886 3.167641 0.508329 4.719691 0.508329 10.330134 0 19.617724-7.197794 21.861666-17.698548 2.438095-11.337378-4.187829-22.528847-15.027468-26.00125-1.966244-1.336716-10.88906-8.498033-8.753374-28.404045 3.094687-28.817062 4.723221-76.05045 4.782056-78.053171l0.02471-0.751903c0-135.76025-110.402648-246.211142-246.089943-246.211142-100.423166 0-192.531862 63.024527-229.202133 156.844126-4.321971 11.07027-7.613164 24.206803-10.536054 35.808935-1.593234 6.336459-3.387682 13.523662-4.418459 16.171208-4.500827 11.506821 1.166097 24.495091 12.672917 29.010039zM740.361978 646.485898c-22.309983-4.905608-42.545468-12.60114-66.047435-22.650046-18.146865-7.75672-38.309395-22.88303-52.659092-39.462548-8.107373-9.347601-22.224085-10.368965-31.558742-2.282773-9.347601 8.094429-10.379555 22.224085-2.295716 31.571686 18.80581 21.716933 44.574076 40.92164 68.911491 51.337673 22.372348 9.552344 46.808605 19.22824 74.037139 25.198749 1.626181 0.363596 3.228829 0.533039 4.817356 0.53304 10.28189 0 19.543593-7.124839 21.826365-17.589116 2.659312-12.064571-4.965619-23.997352-17.031366-26.656665zM115.315315 166.950689c0-28.749991 23.389005-52.140173 52.140173-52.140172h88.580989v-47.067476h-88.580989C112.752491 67.743041 68.24784 112.247693 68.24784 166.950689v87.26663h47.067475v-87.26663zM115.973083 858.335429v-88.580989h-47.067475v88.580989c0 54.702997 44.503475 99.207648 99.206471 99.207649h87.267807v-47.067476h-87.267807c-28.749991 0-52.138996-23.390182-52.138996-52.140173zM856.696304 67.743041h-88.580989v47.067476h88.580989c28.749991 0 52.140173 23.389005 52.140173 52.140172v87.26663h47.067476v-87.26663c-0.001177-54.702997-44.504652-99.207648-99.207649-99.207648zM908.178709 858.335429c0 28.749991-23.390182 52.140173-52.140173 52.140173h-87.266629v47.067476h87.266629c54.702997 0 99.207648-44.503475 99.207649-99.207649v-88.580989h-47.067476v88.580989z" p-id="19610"></path></svg>