<?xml version="1.0" standalone="no"?><!DOCTYPE svg PUBLIC "-//W3C//DTD SVG 1.1//EN" "http://www.w3.org/Graphics/SVG/1.1/DTD/svg11.dtd"><svg t="1597233383769" class="icon" viewBox="0 0 1024 1024" version="1.1" xmlns="http://www.w3.org/2000/svg" p-id="1220" xmlns:xlink="http://www.w3.org/1999/xlink" width="200" height="200"><defs><style type="text/css"></style></defs><path d="M938.24 332.544V167.978667A39.978667 39.978667 0 0 0 898.261333 128H125.312A39.978667 39.978667 0 0 0 85.333333 167.978667v662.528c0 22.058667 17.92 39.978667 39.978667 39.978666h772.949333c22.101333 0 39.978667-17.92 39.978667-39.978666V334.72v-2.176z m-79.957333-124.586667v102.442667l-346.453334 197.973333-346.538666-197.973333v-102.4h692.992zM165.290667 790.528V402.517333l326.656 186.666667a40.192 40.192 0 0 0 39.68 0l326.656-186.666667v388.010667H165.290667z" p-id="1221"></path></svg>