<?xml version="1.0" standalone="no"?><!DOCTYPE svg PUBLIC "-//W3C//DTD SVG 1.1//EN" "http://www.w3.org/Graphics/SVG/1.1/DTD/svg11.dtd"><svg t="1606986328827" class="icon" viewBox="0 0 1024 1024" version="1.1" xmlns="http://www.w3.org/2000/svg" p-id="37402" xmlns:xlink="http://www.w3.org/1999/xlink" width="500" height="500"><defs><style type="text/css"></style></defs><path d="M610.56 395.456h179.84a27.328 27.328 0 0 0 6.144-0.96l67.008-19.264a77.184 77.184 0 0 0 51.84 20.416h0.32a78.208 78.208 0 1 0-75.648-60.8l-52.8 15.36H610.56a22.592 22.592 0 1 0 0 45.248z m304.832-111.36v0.128a31.616 31.616 0 1 1-32.96 32.64 33.28 33.28 0 0 1 32.96-32.768z m-125.44 452.096a77.44 77.44 0 0 0-72.64 50.752H610.56a22.784 22.784 0 0 0 0 45.568h103.808a77.888 77.888 0 1 0 75.52-96.32z m32.832 77.888z m122.624-258.688a77.056 77.056 0 0 0-59.136 27.648 20.544 20.544 0 0 0-5.504-2.56l-56.512-16.512a25.984 25.984 0 0 0-6.4-0.832H610.688a22.784 22.784 0 0 0 0 45.504h203.776l53.632 15.616a78.272 78.272 0 0 0 22.08 64.576 78.016 78.016 0 1 0 55.296-133.376z m0 110.72a32.96 32.96 0 0 1 0-65.92v0.128a32.896 32.896 0 0 1 0 65.792zM362.24 0a166.784 166.784 0 0 0-166.4 161.792 172.8 172.8 0 0 0-118.272 195.2 172.992 172.992 0 0 0 2.816 289.344 172.48 172.48 0 0 0 116.864 209.28 166.4 166.4 0 0 0 331.52-21.504V167.36A167.04 167.04 0 0 0 362.24 0zM789.888 60.224h0.064-0.064zM789.888 60.224a77.44 77.44 0 0 0-72.576 50.752H610.56a22.784 22.784 0 0 0 0 45.568h103.808a77.888 77.888 0 1 0 75.52-96.32z m32.896 77.952a32.832 32.832 0 1 1-65.664-0.064 32.896 32.896 0 1 1 65.664 0z" p-id="37403"></path></svg>