<?xml version="1.0" standalone="no"?><!DOCTYPE svg PUBLIC "-//W3C//DTD SVG 1.1//EN" "http://www.w3.org/Graphics/SVG/1.1/DTD/svg11.dtd"><svg t="1600850832927" class="icon" viewBox="0 0 1638 1024" version="1.1" xmlns="http://www.w3.org/2000/svg" p-id="1591" xmlns:xlink="http://www.w3.org/1999/xlink" width="799.8046875" height="500"><defs><style type="text/css"></style></defs><path d="M870.536533 26.487467l281.258667 201.659733a68.266667 68.266667 0 0 1 0 110.933333l-281.258667 201.728a68.266667 68.266667 0 0 1-79.598933 0l-281.258667-201.659733a68.266667 68.266667 0 0 1 0-110.933333l281.258667-201.728a68.266667 68.266667 0 0 1 79.598933 0zM429.192533 461.6192l281.258667 201.659733a68.266667 68.266667 0 0 1 0 111.0016l-281.258667 201.659734a68.266667 68.266667 0 0 1-79.598933 0l-281.1904-201.659734a68.266667 68.266667 0 0 1 0-110.933333l281.258667-201.728a68.266667 68.266667 0 0 1 79.530666 0zM1301.230933 461.6192l281.258667 201.659733a68.266667 68.266667 0 0 1 0 111.0016l-281.258667 201.659734a68.266667 68.266667 0 0 1-79.530666 0l-281.258667-201.659734a68.266667 68.266667 0 0 1 0-110.933333l281.258667-201.728a68.266667 68.266667 0 0 1 79.530666 0z" p-id="1592"></path></svg>