<?xml version="1.0" standalone="no"?><!DOCTYPE svg PUBLIC "-//W3C//DTD SVG 1.1//EN" "http://www.w3.org/Graphics/SVG/1.1/DTD/svg11.dtd"><svg t="1606986810022" class="icon" viewBox="0 0 1024 1024" version="1.1" xmlns="http://www.w3.org/2000/svg" p-id="48280" xmlns:xlink="http://www.w3.org/1999/xlink" width="500" height="500"><defs><style type="text/css"></style></defs><path d="M988.672 324.608l-231.936 231.936c-16.384 16.384-41.984 16.384-58.368 0L467.456 324.608c-16.384-16.384-16.384-41.984 0-58.368l231.936-230.912c16.384-16.384 41.984-16.384 58.368 0l230.912 231.936c16.384 15.872 16.384 41.984 0 57.344zM391.68 1000.96h-327.68c-23.04 0-40.96-17.92-40.96-40.96v-327.68c0-23.04 17.92-40.96 40.96-40.96h327.68c23.04 0 40.96 17.92 40.96 40.96v327.68c0.512 23.04-17.92 40.96-40.96 40.96z m0-492.032h-327.68c-23.04 0-40.96-17.92-40.96-40.96v-327.68c0-23.04 17.92-40.96 40.96-40.96h327.68c23.04 0 40.96 17.92 40.96 40.96v327.68c0.512 23.04-17.92 40.96-40.96 40.96z m164.352 81.92h327.68c23.04 0 40.96 17.92 40.96 40.96v327.68c0 23.04-17.92 40.96-40.96 40.96h-327.68c-23.04 0-40.96-17.92-40.96-40.96v-327.68c0-22.528 17.92-40.96 40.96-40.96z" p-id="48281"></path></svg>