<?xml version="1.0" encoding="UTF-8"?>
<svg width="27px" height="28px" viewBox="0 0 27 28" version="1.1" xmlns="http://www.w3.org/2000/svg" xmlns:xlink="http://www.w3.org/1999/xlink">
    <title>Shape</title>
    <defs>
        <linearGradient x1="4.875%" y1="0%" x2="78.6257868%" y2="100%" id="linearGradient-1">
            <stop stop-color="#F7E194" offset="0%"></stop>
            <stop stop-color="#F99E8F" offset="100%"></stop>
        </linearGradient>
        <path d="M18.7061856,21.7291667 L10.185567,25.8125 C9.79381443,26.0625 9.20618557,26.0625 8.71649485,25.8125 L0.293814433,21.7291667 C-0.0979381443,21.5625 -0.0979381443,21.1458333 0.293814433,20.9791667 L2.25257732,20.0625 C2.44845361,19.9791667 2.54639175,19.9791667 2.74226804,20.0625 L7.83505155,22.5625 C8.42268041,22.7291667 8.91237113,22.8958333 9.5,22.8958333 C10.0876289,22.8958333 10.6752577,22.7291667 11.1649485,22.5625 L16.257732,20.0625 C16.4536082,19.9791667 16.6494845,19.9791667 16.7474227,20.0625 L18.7061856,20.9791667 C19.0979381,21.1458333 19.0979381,21.5625 18.7061856,21.7291667 L18.7061856,21.7291667 Z M18.7061856,16.7231834 L10.185567,20.8754325 C9.79381443,21.0415225 9.20618557,21.0415225 8.71649485,20.8754325 L0.293814433,16.7231834 C-0.0979381443,16.5570934 -0.0979381443,16.2249135 0.293814433,16.0588235 L2.25257732,15.0622837 C2.44845361,14.9792388 2.54639175,14.9792388 2.74226804,15.0622837 L7.83505155,17.5536332 C8.42268041,17.8027682 8.91237113,17.8858131 9.5,17.8858131 C10.0876289,17.8858131 10.6752577,17.8027682 11.1649485,17.5536332 L16.257732,15.0622837 C16.4536082,14.9792388 16.6494845,14.9792388 16.7474227,15.0622837 L18.7061856,16.0588235 C19.0979381,16.2249135 19.0979381,16.5570934 18.7061856,16.7231834 L18.7061856,16.7231834 Z M8.72972973,15.8645598 L0.22007722,11.4401806 C-0.0733590734,11.2595937 -0.0733590734,10.8081264 0.22007722,10.6275395 L8.72972973,6.20316027 C9.21879022,5.93227991 9.80566281,5.93227991 10.1969112,6.20316027 L18.7065637,10.6275395 C19.0978121,10.8081264 19.0978121,11.2595937 18.7065637,11.4401806 L10.1969112,15.8645598 C9.80566281,16.0451467 9.21879022,16.0451467 8.72972973,15.8645598 Z" id="path-2"></path>
        <filter x="-36.8%" y="-25.0%" width="173.7%" height="170.0%" filterUnits="objectBoundingBox" id="filter-3">
            <feOffset dx="0" dy="2" in="SourceAlpha" result="shadowOffsetOuter1"></feOffset>
            <feGaussianBlur stdDeviation="2" in="shadowOffsetOuter1" result="shadowBlurOuter1"></feGaussianBlur>
            <feColorMatrix values="0 0 0 0 0.83800385   0 0 0 0 0.484263391   0 0 0 0 0.484263391  0 0 0 0.3 0" type="matrix" in="shadowBlurOuter1"></feColorMatrix>
        </filter>
    </defs>
    <g id="营销结果看板" stroke="none" stroke-width="1" fill="none" fill-rule="evenodd">
        <g transform="translate(-184.000000, -161.000000)" fill-rule="nonzero" id="编组-10">
            <g transform="translate(52.000000, 149.000000)">
                <g id="Shape" transform="translate(136.000000, 8.000000)">
                    <use fill="black" fill-opacity="1" filter="url(#filter-3)" xlink:href="#path-2"></use>
                    <use fill="url(#linearGradient-1)" xlink:href="#path-2"></use>
                </g>
            </g>
        </g>
    </g>
</svg>