<?xml version="1.0" encoding="UTF-8"?>
<svg width="29px" height="30px" viewBox="0 0 29 30" version="1.1" xmlns="http://www.w3.org/2000/svg" xmlns:xlink="http://www.w3.org/1999/xlink">
    <title>Shape</title>
    <defs>
        <linearGradient x1="4.44214876%" y1="0%" x2="95.5578512%" y2="124.058237%" id="linearGradient-1">
            <stop stop-color="#EAC27B" offset="0%"></stop>
            <stop stop-color="#E25C28" offset="100%"></stop>
        </linearGradient>
        <path d="M2.79329609,15.2397055 C2.79329609,15.0393084 2.5698324,14.9391098 2.34636872,15.0393084 L0.111731844,16.7426837 C0,16.8428823 0,16.9430808 0,17.1434779 L0,24.4579719 C0,24.9589647 0.670391061,25.1593618 1.11731844,24.8587661 L4.91620112,22.2536039 C5.02793296,22.1534053 5.02793296,22.0532068 4.91620112,21.8528097 C4.02234637,20.6504271 3.12849162,18.5462576 2.79329609,15.2397055 L2.79329609,15.2397055 Z M8.03061224,22.8977273 C8.14285714,22.8977273 8.25510204,23 8.36734694,23 L12.6326531,23 C12.744898,23 12.8571429,22.8977273 12.9693878,22.8977273 C13.5306122,22.4886364 16,20.6477273 16,14.2045455 C16,11.2386364 15.1020408,9.09090909 13.9795918,7.76136364 C12.4081633,5.61363636 10.5,5 10.5,5 C10.5,5 8.47959184,5.61363636 6.90816327,7.76136364 C5.78571429,9.19318182 5,11.2386364 5,14.2045455 C5,20.6477273 7.35714286,22.4886364 8.03061224,22.8977273 Z M10.0545455,10 C11.6909091,10 13,11.0909091 13,12.5454545 C13,14 11.6909091,15 10.0545455,15 C8.41818182,15 7,13.9090909 7,12.5454545 C7,11.1818182 8.30909091,10 10.0545455,10 Z M20.8863636,16.7343536 L18.6136364,15.0391205 C18.3863636,14.9394009 18.1590909,15.0391205 18.1590909,15.2385597 C17.8181818,18.5293063 16.9090909,20.6234178 16,21.9197725 L16,22.2189313 L19.8636364,24.8116408 C20.3181818,25.2105191 21,24.9113604 21,24.512482 L21,17.133232 C21,16.9337928 21,16.8340732 20.8863636,16.7343536 Z M13.3096661,24.2142857 C13.197474,24.1071429 12.9730899,24 12.8608978,24 L7.13910221,24 C7.02691014,24 6.802526,24.1071429 6.69033393,24.2142857 C6.57814186,24.5357143 6.24156565,25.0714286 6.01718151,25.8214286 C5.90498944,26.3571429 6.35375772,27 7.02691014,27 L12.9730899,27 C13.6462423,27 14.0950106,26.3571429 13.9828185,25.8214286 C13.7584343,25.0714286 13.4218581,24.5357143 13.3096661,24.2142857 Z" id="path-2"></path>
        <filter x="-33.3%" y="-22.7%" width="166.7%" height="163.6%" filterUnits="objectBoundingBox" id="filter-3">
            <feOffset dx="0" dy="2" in="SourceAlpha" result="shadowOffsetOuter1"></feOffset>
            <feGaussianBlur stdDeviation="2" in="shadowOffsetOuter1" result="shadowBlurOuter1"></feGaussianBlur>
            <feColorMatrix values="0 0 0 0 0.83800385   0 0 0 0 0.484263391   0 0 0 0 0.484263391  0 0 0 0.3 0" type="matrix" in="shadowBlurOuter1"></feColorMatrix>
        </filter>
    </defs>
    <g id="营销结果看板" stroke="none" stroke-width="1" fill="none" fill-rule="evenodd">
        <g transform="translate(-1348.000000, -160.000000)" fill-rule="nonzero" id="编组-10">
            <g transform="translate(52.000000, 149.000000)">
                <g id="Shape" transform="translate(1300.000000, 8.000000)">
                    <use fill="black" fill-opacity="1" filter="url(#filter-3)" xlink:href="#path-2"></use>
                    <use fill="url(#linearGradient-1)" xlink:href="#path-2"></use>
                </g>
            </g>
        </g>
    </g>
</svg>