<?xml version="1.0" encoding="UTF-8"?>
<svg width="28px" height="28px" viewBox="0 0 28 28" version="1.1" xmlns="http://www.w3.org/2000/svg" xmlns:xlink="http://www.w3.org/1999/xlink">
    <title>Shape</title>
    <defs>
        <linearGradient x1="0%" y1="-21.3872062%" x2="115.638142%" y2="125.656507%" id="linearGradient-1">
            <stop stop-color="#F0B99B" offset="0%"></stop>
            <stop stop-color="#EB5645" offset="100%"></stop>
        </linearGradient>
        <path d="M17.6811594,6 L4.7826087,6 C3.62318841,6 2.46376812,7.11111111 2.46376812,8.22222222 L1.5942029,8.22222222 C0.724637681,8.22222222 0,8.91666667 0,9.88888889 C0,10.8611111 0.724637681,11.4166667 1.5942029,11.4166667 L2.46376812,11.4166667 L2.46376812,14.4722222 L1.5942029,14.4722222 C0.724637681,14.4722222 0,15.1666667 0,16 C0,16.8333333 0.724637681,17.5277778 1.5942029,17.5277778 L2.46376812,17.5277778 L2.46376812,20.5833333 L1.5942029,20.5833333 C0.724637681,20.5833333 0,21.2777778 0,22.1111111 C0,23.0833333 0.724637681,23.6388889 1.5942029,23.6388889 L2.46376812,23.6388889 C2.46376812,25.1666667 3.62318841,26 4.7826087,26 L17.6811594,26 C18.8405797,26 20,24.8888889 20,23.6388889 L20,8.22222222 C20,6.97222222 18.8405797,6 17.6811594,6 Z M16,22.3333333 C16,22.7333333 15.7222222,23 15.4444444,23 L6.69444444,23 C6.27777778,23 6,22.7333333 6,22.3333333 L6,21.6666667 C6,21.4 6.27777778,21 6.69444444,21 L15.4444444,21 C15.7222222,21 16,21.4 16,21.6666667 L16,22.3333333 L16,22.3333333 Z M6.22727273,16.5538462 L6.98484848,15.8358974 C7.13636364,15.5487179 7.59090909,15.5487179 7.74242424,15.8358974 L9.71212121,17.5589744 L14.2575758,13.1076923 C14.5606061,12.9641026 14.8636364,12.9641026 15.0151515,13.1076923 L15.7727273,13.825641 C16.0757576,14.1128205 16.0757576,14.4 15.7727273,14.6871795 L10.3181818,19.7128205 C10.1666667,19.8564103 9.86363636,20 9.56060606,20 C9.25757576,20 9.10606061,19.8564103 8.8030303,19.7128205 L6.22727273,17.2717949 C5.92424242,16.9846154 5.92424242,16.6974359 6.22727273,16.5538462 L6.22727273,16.5538462 Z M16,10.3333333 C16,10.6 15.7222222,11 15.4444444,11 L6.69444444,11 C6.27777778,11 6,10.6 6,10.3333333 L6,9.66666667 C6,9.26666667 6.27777778,9 6.69444444,9 L15.4444444,9 C15.7222222,9 16,9.26666667 16,9.66666667 L16,10.3333333 L16,10.3333333 Z" id="path-2"></path>
        <filter x="-35.0%" y="-25.0%" width="170.0%" height="170.0%" filterUnits="objectBoundingBox" id="filter-3">
            <feOffset dx="0" dy="2" in="SourceAlpha" result="shadowOffsetOuter1"></feOffset>
            <feGaussianBlur stdDeviation="2" in="shadowOffsetOuter1" result="shadowBlurOuter1"></feGaussianBlur>
            <feColorMatrix values="0 0 0 0 0.83800385   0 0 0 0 0.484263391   0 0 0 0 0.484263391  0 0 0 0.3 0" type="matrix" in="shadowBlurOuter1"></feColorMatrix>
        </filter>
    </defs>
    <g id="营销结果看板" stroke="none" stroke-width="1" fill="none" fill-rule="evenodd">
        <g transform="translate(-838.000000, -161.000000)" fill-rule="nonzero" id="编组-10">
            <g transform="translate(52.000000, 149.000000)">
                <g id="Shape" transform="translate(790.000000, 8.000000)">
                    <use fill="black" fill-opacity="1" filter="url(#filter-3)" xlink:href="#path-2"></use>
                    <use fill="url(#linearGradient-1)" xlink:href="#path-2"></use>
                </g>
            </g>
        </g>
    </g>
</svg>