<?xml version="1.0" standalone="no"?><!DOCTYPE svg PUBLIC "-//W3C//DTD SVG 1.1//EN" "http://www.w3.org/Graphics/SVG/1.1/DTD/svg11.dtd"><svg t="1601003036343" class="icon" viewBox="0 0 1024 1024" version="1.1" xmlns="http://www.w3.org/2000/svg" p-id="1871" xmlns:xlink="http://www.w3.org/1999/xlink" width="500" height="500"><defs><style type="text/css"></style></defs><path d="M779.845189 0H222.235676C175.93427 0 138.378378 37.140757 138.378378 82.944v838.406919c0 45.803243 37.555892 82.944 83.857298 82.944h557.609513c46.301405 0 83.857297-37.140757 83.857297-82.944V82.944c0-45.803243-37.555892-82.944-83.857297-82.944z m-243.684324 932.559568h-72.51027c-20.037189 0-36.255135-16.051892-36.255136-35.867676 0-19.815784 16.217946-35.867676 36.255136-35.867676h72.51027c20.037189 0 36.255135 16.051892 36.255135 35.867676 0 19.815784-16.217946 35.867676-36.255135 35.867676z m253.868973-163.646271c0 11.153297-9.132973 20.175568-20.396973 20.175568H230.178595a20.28627 20.28627 0 0 1-20.396973-20.175568V91.910919c0-11.153297 9.132973-20.175568 20.396973-20.175568h539.45427c11.264 0 20.396973 9.02227 20.396973 20.175568v677.002378z" p-id="1872"></path></svg>