<?xml version="1.0" standalone="no"?><!DOCTYPE svg PUBLIC "-//W3C//DTD SVG 1.1//EN" "http://www.w3.org/Graphics/SVG/1.1/DTD/svg11.dtd"><svg t="1599211249121" class="icon" viewBox="0 0 1157 1024" version="1.1" xmlns="http://www.w3.org/2000/svg" p-id="42101" xmlns:xlink="http://www.w3.org/1999/xlink" width="225.9765625" height="200"><defs><style type="text/css"></style></defs><path d="M839.910112 483.235955c-34.516854 0-69.033708-28.764045-69.033708-69.033708S805.393258 345.168539 839.910112 345.168539s69.033708 28.764045 69.033708 69.033708-28.764045 69.033708-69.033708 69.033708z m-264.629213 0c-34.516854 0-69.033708-28.764045-69.033708-69.033708S540.764045 345.168539 575.280899 345.168539s69.033708 28.764045 69.033708 69.033708c-5.752809 40.269663-34.516854 69.033708-69.033708 69.033708z m-264.629214 0c-34.516854 0-69.033708-28.764045-69.033707-69.033708S270.382022 345.168539 310.651685 345.168539c34.516854 0 63.280899 34.516854 63.280899 69.033708 0 40.269663-28.764045 69.033708-63.280899 69.033708zM1012.494382 0H138.067416C46.022472 0 0 46.022472 0 138.067416v558.022472c0 92.044944 40.269663 138.067416 132.314607 138.067415h132.314606L247.370787 977.977528c0 17.258427 11.505618 34.516854 23.011235 40.269663 5.752809 0 11.505618 5.752809 23.011236 5.752809 5.752809 0 17.258427 0 28.764045-5.752809l264.629214-178.337079h431.460674c92.044944 0 132.314607-46.022472 132.314607-138.067415V138.067416C1150.561798 46.022472 1104.539326 0 1012.494382 0z" p-id="42102"></path></svg>