<?xml version="1.0" standalone="no"?><!DOCTYPE svg PUBLIC "-//W3C//DTD SVG 1.1//EN" "http://www.w3.org/Graphics/SVG/1.1/DTD/svg11.dtd"><svg t="1608107524365" class="icon" viewBox="0 0 1024 1024" version="1.1" xmlns="http://www.w3.org/2000/svg" p-id="34271" xmlns:xlink="http://www.w3.org/1999/xlink" width="500" height="500"><defs><style type="text/css"></style></defs><path d="M256 170.666667V85.333333h512v85.333334h42.666667a85.333333 85.333333 0 0 1 85.333333 85.333333v597.333333a85.333333 85.333333 0 0 1-85.333333 85.333334H213.333333a85.333333 85.333333 0 0 1-85.333333-85.333334V256a85.333333 85.333333 0 0 1 85.333333-85.333333h42.666667z m85.333333 0v85.333333h341.333334V170.666667H341.333333z m374.101334 283.306666l-65.536-54.613333-183.466667 220.117333-94.933333-94.976-60.330667 60.330667 161.024 161.024 243.242667-291.84z" p-id="34272"></path></svg>