<?xml version="1.0" standalone="no"?><!DOCTYPE svg PUBLIC "-//W3C//DTD SVG 1.1//EN" "http://www.w3.org/Graphics/SVG/1.1/DTD/svg11.dtd"><svg t="1608106883017" class="icon" viewBox="0 0 1024 1024" version="1.1" xmlns="http://www.w3.org/2000/svg" p-id="24490" xmlns:xlink="http://www.w3.org/1999/xlink" width="500" height="500"><defs><style type="text/css"></style></defs><path d="M699.984842 245.76l-62.733474-48.074105a16.168421 16.168421 0 0 1 6.305685-28.564211l279.875368-62.517895a16.168421 16.168421 0 0 1 15.791158 26.354527l-17.192421 19.994947A38.696421 38.696421 0 0 1 916.210526 161.684211l-309.355789 358.4a53.894737 53.894737 0 0 1-70.871579 9.808842L414.073263 448.619789 283.432421 600.926316a53.894737 53.894737 0 0 1-74.590316 7.006316l-134.736842-107.789474a53.894737 53.894737 0 1 1 67.368421-84.183579L235.52 491.250526 363.250526 342.231579a53.894737 53.894737 0 0 1 70.871579-9.754947l121.909895 81.273263L700.092632 245.76zM53.894737 613.861053a10.778947 10.778947 0 0 1 17.030737-8.784842l153.061052 109.298526A26.947368 26.947368 0 0 0 258.694737 711.410526l159.959579-159.959579a21.557895 21.557895 0 0 1 27.216842-2.694736l127.946105 85.315368a26.947368 26.947368 0 0 0 34.654316-4.042105l342.986105-367.562106a10.778947 10.778947 0 0 1 18.647579 7.383579V889.263158a26.947368 26.947368 0 0 1-26.947368 26.947368h-862.31579a26.947368 26.947368 0 0 1-26.947368-26.947368v-275.456z" p-id="24491"></path></svg>