<?xml version="1.0" standalone="no"?><!DOCTYPE svg PUBLIC "-//W3C//DTD SVG 1.1//EN" "http://www.w3.org/Graphics/SVG/1.1/DTD/svg11.dtd"><svg t="1608107390268" class="icon" viewBox="0 0 1024 1024" version="1.1" xmlns="http://www.w3.org/2000/svg" p-id="25931" xmlns:xlink="http://www.w3.org/1999/xlink" width="500" height="500"><defs><style type="text/css"></style></defs><path d="M771.8 959.56H256.14c-70.75 0-128.17-42.42-128.17-114.55V257.29c0-72.09 58.32-130.51 130.28-130.58v2c0.03 70.99 57.47 128.5 128.29 128.5h264.6c70.83 0 128.26-57.53 128.28-128.5v-2h0.85c72.09 0 117.45 54.38 117.45 126.51v580.41c0 69.55-56.38 125.93-125.92 125.93z m-67.11-546.29H319.81c-17.73 0.03-32.08 14.41-32.06 32.14-0.02 17.73 14.33 32.11 32.06 32.14h384.88c17.73-0.02 32.09-14.41 32.08-32.14 0.01-17.73-14.35-32.12-32.08-32.14z m0 128.56H319.81c-17.73 0.03-32.08 14.41-32.06 32.14-0.02 17.73 14.33 32.11 32.06 32.14h274.7c17.73-0.02 32.09-14.41 32.08-32.14 0.02-17.73-14.34-32.12-32.08-32.14h110.18z m0 141.66H319.81c-17.73 0.03-32.08 14.41-32.06 32.14-0.02 17.73 14.33 32.11 32.06 32.14h196c17.73-0.02 32.09-14.41 32.08-32.14 0.02-17.73-14.34-32.12-32.08-32.14h188.88z m-53.53-490.56H388.62c-35.42 0.01-64.15-28.7-64.15-64.12V126.67c-0.04-35.46 28.66-64.24 64.12-64.3h262.57c35.46 0.04 64.17 28.82 64.14 64.28v2.05c0 17.06-6.75 33.4-18.78 45.44a63.996 63.996 0 0 1-45.36 18.79z" p-id="25932"></path></svg>