<?xml version="1.0" standalone="no"?><!DOCTYPE svg PUBLIC "-//W3C//DTD SVG 1.1//EN" "http://www.w3.org/Graphics/SVG/1.1/DTD/svg11.dtd"><svg t="1608107734531" class="icon" viewBox="0 0 1024 1024" version="1.1" xmlns="http://www.w3.org/2000/svg" p-id="37774" xmlns:xlink="http://www.w3.org/1999/xlink" width="500" height="500"><defs><style type="text/css"></style></defs><path d="M925.184 153.6H98.816a47.8208 47.8208 0 0 0-47.616 47.616v124.5184h921.6V201.216A47.8208 47.8208 0 0 0 925.184 153.6zM51.2 776.5504c0.1024 26.3168 21.3504 47.616 47.616 47.6672h826.368a47.8208 47.8208 0 0 0 47.616-47.616V371.712H51.2v404.8384z m598.6304-113.664l30.208-115.968a11.3152 11.3152 0 0 1 10.9568-8.3968h181.8112a11.3664 11.3664 0 0 1 10.9056 14.2848l-30.1568 115.8656a11.3152 11.3152 0 0 1-10.8544 8.3968h-181.9648a11.264 11.264 0 0 1-10.9056-14.1824z m-339.3536-200.704c0-8.704 7.0656-15.872 15.8208-15.872h29.7472c8.7552 0 15.872 7.168 15.872 15.872v41.984a15.872 15.872 0 0 1-15.872 15.872h-29.7472a15.8208 15.8208 0 0 1-15.8208-15.872v-41.984z m-98.3552 0c0-8.704 7.0656-15.872 15.7696-15.872h29.7984c8.704 0 15.872 7.168 15.872 15.872v41.984a15.872 15.872 0 0 1-15.872 15.872h-29.7472a15.8208 15.8208 0 0 1-15.872-15.872v-41.984z m-98.304 0c0-8.704 7.0656-15.872 15.8208-15.872h29.7984c8.704 0 15.8208 7.168 15.8208 15.872v41.984a15.872 15.872 0 0 1-15.872 15.872h-29.696a15.8208 15.8208 0 0 1-15.872-15.872v-41.984z" p-id="37775"></path></svg>