<?xml version="1.0" standalone="no"?><!DOCTYPE svg PUBLIC "-//W3C//DTD SVG 1.1//EN" "http://www.w3.org/Graphics/SVG/1.1/DTD/svg11.dtd"><svg t="1598089986337" class="icon" viewBox="0 0 1024 1024" version="1.1" xmlns="http://www.w3.org/2000/svg" p-id="9214" xmlns:xlink="http://www.w3.org/1999/xlink" width="200" height="200"><defs><style type="text/css"></style></defs><path d="M682.048504 42.669354v256h255.088882v-64.004031L745.826772 42.669354zM299.427276 618.673386h425.145448v362.65726H299.427276z" fill="#CCE4FF" p-id="9215"></path><path d="M724.572724 0H44.346457v1024h85.024252V85.330646h510.1697v256h255.088882V1024H979.653543V216.999307L763.452472 0h-38.879748z m170.048504 256h-170.048504V85.330646h3.628347l166.420157 167.000693v3.668661z" fill="#007AFF" p-id="9216"></path><path d="M554.516157 810.669354V593.670047l85.024252 85.330646 60.141859-60.33537L512 430.329953 324.317732 618.673386l60.141859 60.33537 85.024252-85.330646v216.999307z" fill="#007AFF" p-id="9217"></path><path d="M256.919181 1024h510.161638v-213.330646H682.056567v128H341.943433v-128H256.919181z" fill="#007AFF" p-id="9218"></path></svg>