<?xml version="1.0" standalone="no"?><!DOCTYPE svg PUBLIC "-//W3C//DTD SVG 1.1//EN" "http://www.w3.org/Graphics/SVG/1.1/DTD/svg11.dtd"><svg t="1603976033912" class="icon" viewBox="0 0 1024 1024" version="1.1" xmlns="http://www.w3.org/2000/svg" p-id="15302" xmlns:xlink="http://www.w3.org/1999/xlink" width="500" height="500"><defs><style type="text/css"></style></defs><path d="M971.008 180.992L534.016 359.008 96 180.992 532.992 12zM60 255.008l436 182.016v492.992q-52-23.008-108-48-48-20.992-108.512-47.008t-121.504-52q-22.016-10.016-40-26.496t-31.008-36-20-41.504T59.968 636V255.008z m938.016 0v379.008q0 26.016-10.016 50.496t-25.504 46.016T928 768.544t-36.992 25.504Q838.016 816.064 780 840.064t-107.008 44q-56.992 24-112 46.016V437.088z" p-id="15303"></path></svg>