<?xml version="1.0" standalone="no"?><!DOCTYPE svg PUBLIC "-//W3C//DTD SVG 1.1//EN" "http://www.w3.org/Graphics/SVG/1.1/DTD/svg11.dtd"><svg t="1598086757439" class="icon" viewBox="0 0 1028 1024" version="1.1" xmlns="http://www.w3.org/2000/svg" p-id="3578" xmlns:xlink="http://www.w3.org/1999/xlink" width="200.78125" height="200"><defs><style type="text/css"></style></defs><path d="M554.666667 597.333333H213.333333c-119.466667 0-213.333333 93.866667-213.333333 213.333334v85.333333c0 25.6 17.066667 42.666667 42.666667 42.666667s42.666667-17.066667 42.666666-42.666667v-85.333333c0-72.533333 55.466667-128 128-128h341.333334c72.533333 0 128 55.466667 128 128v85.333333c0 25.6 17.066667 42.666667 42.666666 42.666667s42.666667-17.066667 42.666667-42.666667v-85.333333c0-119.466667-93.866667-213.333333-213.333333-213.333334zM384 512c119.466667 0 213.333333-93.866667 213.333333-213.333333s-93.866667-213.333333-213.333333-213.333334-213.333333 93.866667-213.333333 213.333334 93.866667 213.333333 213.333333 213.333333z m0-341.333333c72.533333 0 128 55.466667 128 128s-55.466667 128-128 128-128-55.466667-128-128 55.466667-128 128-128zM866.133333 605.866667c-21.333333-4.266667-46.933333 8.533333-51.2 29.866666s8.533333 46.933333 29.866667 51.2c55.466667 12.8 93.866667 64 98.133333 123.733334v85.333333c0 25.6 17.066667 42.666667 42.666667 42.666667s42.666667-17.066667 42.666667-42.666667v-85.333333c-4.266667-98.133333-68.266667-183.466667-162.133334-204.8zM691.2 93.866667c-21.333333-8.533333-42.666667 4.266667-51.2 29.866666-4.266667 21.333333 8.533333 46.933333 29.866667 51.2 68.266667 17.066667 110.933333 85.333333 93.866666 157.866667-12.8 46.933333-46.933333 81.066667-93.866666 93.866667-21.333333 4.266667-38.4 29.866667-29.866667 51.2 4.266667 21.333333 21.333333 34.133333 42.666667 34.133333h8.533333c76.8-21.333333 136.533333-76.8 153.6-153.6 29.866667-119.466667-38.4-238.933333-153.6-264.533333z" p-id="3579"></path></svg>