<?xml version="1.0" standalone="no"?><!DOCTYPE svg PUBLIC "-//W3C//DTD SVG 1.1//EN" "http://www.w3.org/Graphics/SVG/1.1/DTD/svg11.dtd"><svg t="1599622313018" class="icon" viewBox="0 0 1024 1024" version="1.1" xmlns="http://www.w3.org/2000/svg" p-id="30763" xmlns:xlink="http://www.w3.org/1999/xlink" width="500" height="500"><defs><style type="text/css"></style></defs><path d="M767.739573 471.060834c-9.792065-61.669176-42.085046-116.046389-88.128586-155.006307-45.626857-38.543235-104.587589-61.877518-168.756867-61.877518-63.752594 0-122.088301 23.125941-167.090132 61.460834-45.626857 38.959919-77.503154 93.545473-87.503561 155.422991l-33.751373-5.416887c11.042116-70.21119 47.293591-131.880366 98.96236-176.04883 51.043744-43.543438 117.088098-69.794507 189.174364-69.794507 72.294608 0 139.17233 26.251068 190.632757 70.002849 52.085453 43.960122 88.753611 105.83764 99.795727 175.840488l-33.334689 5.416887z" fill="#00796B" p-id="30764"></path><path d="M512.104171 609.608138c-33.126348 0-63.960936-13.333876-86.878535-37.293184l-2.708444-2.916785-3.541811 2.083418c-48.543642 28.126144-80.419939 77.08647-89.79532 138.338962l-0.416684 2.29176 1.458393 1.666735c48.543642 58.127365 113.129603 90.212004 181.882401 90.212004v-194.38291z" fill="#EF5350" p-id="30765"></path><path d="M605.23296 571.481587l-3.54181-2.083418-2.708444 2.916785c-22.917599 24.16765-53.752187 37.293184-86.670193 37.293184h-0.208342v194.174568c68.752798 0 133.338759-32.084639 181.674059-90.212004l1.458393-1.666735-0.416684-2.291759c-9.16704-61.044151-41.043337-110.004476-89.586979-138.130621zM512.104171 585.232146h0.208342c60.002442-0.208342 108.754425-49.168667 108.754425-109.171108 0-60.002442-48.751984-108.962767-108.546083-109.171109h-0.416684v218.342217z" fill="#E53935" p-id="30766"></path><path d="M512.104171 585.232146V366.889929c-60.210783 0-109.171109 48.960326-109.171109 109.171109 0 60.002442 48.960326 109.171109 109.171109 109.171108z" fill="#EF5350" p-id="30767"></path><path d="M239.593082 572.314954c-20.209156 0-38.959919-8.125331-52.91882-22.709257l-1.666734-1.666735-2.083418 1.250051c-29.584537 17.084028-48.960326 46.876907-54.585555 84.170092l-0.208341 1.458392 0.833367 1.04171c29.584537 35.418108 68.961139 55.002238 110.837843 55.002238l-0.208342-118.546491z" fill="#FBC02D" p-id="30768"></path><path d="M296.470397 548.980671l-2.083418-1.25005-1.666735 1.666734c-13.958901 14.583927-32.709664 22.709257-52.710478 22.709257h-0.208342v118.338149c41.876704 0 81.253306-19.58413 110.629502-55.002238l0.833367-1.041709-0.208342-1.458393c-5.625229-36.876501-25.001017-66.877721-54.585554-83.96175zM239.593082 557.314344c36.668159-0.208342 66.461038-30.001221 66.461038-66.461038s-29.584537-66.252696-66.252696-66.461037h-0.208342v132.922075z" fill="#F9A825" p-id="30769"></path><path d="M239.593082 557.314344v-132.922075c-36.668159 0-66.461038 29.792879-66.461037 66.461037 0 36.668159 29.792879 66.461038 66.461037 66.461038z" fill="#FBC02D" p-id="30770"></path><path d="M784.406918 572.314954c-20.209156 0-38.959919-8.125331-52.91882-22.709257l-1.666735-1.666735-2.083418 1.250051c-29.584537 17.084028-48.960326 46.876907-54.585554 84.170092l-0.208342 1.458392 0.833367 1.04171c29.584537 35.418108 68.961139 55.002238 110.837843 55.002238l-0.208341-118.546491z" fill="#FBC02D" p-id="30771"></path><path d="M841.07589 548.980671l-2.083418-1.25005-1.666734 1.666734c-13.958901 14.583927-32.709664 22.709257-52.710479 22.709257h-0.208341v118.338149c41.876704 0 81.253306-19.58413 110.629501-55.002238l0.833367-1.041709-0.208341-1.458393c-5.625229-36.876501-25.001017-66.877721-54.585555-83.96175zM784.406918 557.314344c36.668159-0.208342 66.461038-30.001221 66.461037-66.461038s-29.584537-66.252696-66.252696-66.461037h-0.208341v132.922075z" fill="#F9A825" p-id="30772"></path><path d="M784.406918 557.314344v-132.922075c-36.668159 0-66.461038 29.792879-66.461038 66.461037 0 36.668159 29.792879 66.461038 66.461038 66.461038z" fill="#FBC02D" p-id="30773"></path></svg>