<?xml version="1.0" standalone="no"?><!DOCTYPE svg PUBLIC "-//W3C//DTD SVG 1.1//EN" "http://www.w3.org/Graphics/SVG/1.1/DTD/svg11.dtd"><svg t="1605519697565" class="icon" viewBox="0 0 1493 1024" version="1.1" xmlns="http://www.w3.org/2000/svg" p-id="99734" xmlns:xlink="http://www.w3.org/1999/xlink" width="729.00390625" height="500"><defs><style type="text/css"></style></defs><path d="M159.910717 0.571414H319.821433v1023.428586H159.910717V153.019631L0 262.824989V107.178559z m772.901796 253.725004a294.235718 294.235718 0 0 1-56.501786 213.214289L639.642866 877.948212h293.169647v143.919645H460.542864V884.344641l293.169647-492.525007a236.66786 236.66786 0 0 0 24.519643-130.060716c0-47.973215 0-106.607144-82.087501-106.607144a72.492858 72.492858 0 0 0-81.02143 75.691072v82.087501H453.080363v-92.748215A228.139289 228.139289 0 0 1 697.210724 0.571414a223.875003 223.875003 0 0 1 235.601789 253.725004z m463.741078 239.866075c95.94643 55.435715 95.94643 89.550001 95.94643 233.469646s-8.528572 164.175002-39.444644 205.751788a213.214289 213.214289 0 0 1-191.892859 88.48393 213.214289 213.214289 0 0 1-232.403575-213.214289v-82.087501h159.910716v75.691073a72.492858 72.492858 0 0 0 79.955359 74.625001 76.757144 76.757144 0 0 0 79.955358-82.087501V651.941066c0-74.625001-24.519643-95.94643-127.928573-95.94643V432.330349h-15.991072c95.94643 0 127.928573-13.858929 127.928573-89.550001V213.785703a71.426787 71.426787 0 0 0-79.955358-68.228572A73.55893 73.55893 0 0 0 1172.678588 213.785703v82.087501H1012.767871V213.785703a230.271432 230.271432 0 0 1 239.866075-213.214289 261.187504 261.187504 0 0 1 175.901788 68.228573c47.973215 47.973215 63.964287 88.48393 63.964287 213.214288s-8.528572 164.175002-95.94643 212.148218z" p-id="99735"></path></svg>