<?xml version="1.0" standalone="no"?><!DOCTYPE svg PUBLIC "-//W3C//DTD SVG 1.1//EN" "http://www.w3.org/Graphics/SVG/1.1/DTD/svg11.dtd"><svg t="1605518569769" class="icon" viewBox="0 0 1024 1024" version="1.1" xmlns="http://www.w3.org/2000/svg" p-id="68631" xmlns:xlink="http://www.w3.org/1999/xlink" width="500" height="500"><defs><style type="text/css"></style></defs><path d="M831.97 64.09H704.03V32.045a32.045 32.045 0 0 0-64.09 0V64.09H384.06V32.045a32.045 32.045 0 0 0-64.09 0V64.09H191.312A191.312 191.312 0 0 0 0 250.14v586.851a191.312 191.312 0 0 0 191.312 186.051H831.97a191.312 191.312 0 0 0 191.313-191.312v-575.85A191.312 191.312 0 0 0 831.97 64.09z m127.94 767.88a128.18 128.18 0 0 1-127.94 127.94H191.312a127.94 127.94 0 0 1-127.94-127.94V415.865H959.91z m0-479.955H64.09v-95.656A127.94 127.94 0 0 1 191.312 127.94h127.94v63.372a32.045 32.045 0 0 0 64.09 0V127.94h255.88v63.372a32.045 32.045 0 0 0 64.09 0V127.94h127.94a128.18 128.18 0 0 1 127.94 127.94z" p-id="68632"></path><path d="M296.295 621.766H186.53a36.589 36.589 0 0 1 0-73.177h109.765a36.589 36.589 0 1 1 0 73.177z m292.47 0H442.41a36.589 36.589 0 0 1 0-73.177h146.354a36.589 36.589 0 0 1 0 73.177z m255.88 0H735.118a36.589 36.589 0 1 1 0-73.177h109.527a36.589 36.589 0 1 1 0 73.177z m-548.35 219.291H186.53a36.589 36.589 0 1 1 0-73.177h109.765a36.589 36.589 0 0 1 0 73.177z m292.47 0H442.41a36.589 36.589 0 0 1 0-73.177h146.354a36.589 36.589 0 0 1 0 73.177z m255.88 0H735.118a36.589 36.589 0 1 1 0-73.177h109.527a36.589 36.589 0 1 1 0 73.177z" p-id="68633"></path></svg>