<?xml version="1.0" standalone="no"?><!DOCTYPE svg PUBLIC "-//W3C//DTD SVG 1.1//EN" "http://www.w3.org/Graphics/SVG/1.1/DTD/svg11.dtd"><svg t="1605517319469" class="icon" viewBox="0 0 1027 1024" version="1.1" xmlns="http://www.w3.org/2000/svg" p-id="43264" xmlns:xlink="http://www.w3.org/1999/xlink" width="501.46484375" height="500"><defs><style type="text/css"></style></defs><path d="M230.4 746.057143c14.628571-14.628571 36.571429-14.628571 51.2 0 14.628571 14.628571 14.628571 36.571429 0 51.2l-146.285714 146.285714c-14.628571 14.628571-36.571429 14.628571-51.2 0l-73.142857-73.142857c-14.628571-14.628571-14.628571-36.571429 0-51.2 14.628571-14.628571 36.571429-14.628571 51.2 0l43.885714 43.885714 124.342857-117.028571z m760.685714 58.514286c21.942857 0 36.571429 14.628571 36.571429 36.571428s-14.628571 36.571429-36.571429 36.571429h-585.142857c-21.942857 0-36.571429-14.628571-36.571428-36.571429s14.628571-36.571429 36.571428-36.571428h585.142857zM230.4 453.485714c14.628571-14.628571 36.571429-14.628571 51.2 0 14.628571 14.628571 14.628571 36.571429 0 51.2l-146.285714 146.285715c-14.628571 14.628571-36.571429 14.628571-51.2 0l-73.142857-73.142858c-7.314286-14.628571-7.314286-36.571429 0-51.2 14.628571-14.628571 36.571429-14.628571 51.2 0l43.885714 43.885715 124.342857-117.028572z m760.685714 58.514286c21.942857 0 36.571429 14.628571 36.571429 36.571429s-14.628571 36.571429-36.571429 36.571428h-585.142857c-21.942857 0-36.571429-14.628571-36.571428-36.571428s14.628571-36.571429 36.571428-36.571429h585.142857zM237.714286 153.6c14.628571-14.628571 36.571429-14.628571 51.2 0 14.628571 14.628571 14.628571 36.571429 0 51.2l-146.285715 146.285714c-14.628571 14.628571-43.885714 14.628571-58.514285 7.314286l-73.142857-73.142857c-7.314286-14.628571-7.314286-36.571429 0-51.2 14.628571-14.628571 36.571429-14.628571 51.2-7.314286l43.885714 43.885714 131.657143-117.028571z m753.371428 65.828571c21.942857 0 36.571429 14.628571 36.571429 36.571429s-14.628571 36.571429-36.571429 36.571429h-585.142857c-21.942857 0-36.571429-7.314286-36.571428-36.571429s14.628571-36.571429 36.571428-36.571429h585.142857z" p-id="43265"></path></svg>