<?xml version="1.0" encoding="UTF-8"?>
<svg width="26px" height="28px" viewBox="0 0 26 28" version="1.1" xmlns="http://www.w3.org/2000/svg" xmlns:xlink="http://www.w3.org/1999/xlink">
    <title>形状结合</title>
    <defs>
        <filter x="-66.7%" y="-60.0%" width="233.3%" height="220.0%" filterUnits="objectBoundingBox" id="filter-1">
            <feOffset dx="0" dy="2" in="SourceAlpha" result="shadowOffsetOuter1"></feOffset>
            <feGaussianBlur stdDeviation="2" in="shadowOffsetOuter1" result="shadowBlurOuter1"></feGaussianBlur>
            <feColorMatrix values="0 0 0 0 0.799801897   0 0 0 0 0.815696793   0 0 0 0 0.904155344  0 0 0 1 0" type="matrix" in="shadowBlurOuter1" result="shadowMatrixOuter1"></feColorMatrix>
            <feMerge>
                <feMergeNode in="shadowMatrixOuter1"></feMergeNode>
                <feMergeNode in="SourceGraphic"></feMergeNode>
            </feMerge>
        </filter>
    </defs>
    <g id="营销结果看板" stroke="none" stroke-width="1" fill="none" fill-rule="evenodd">
        <g transform="translate(-271.000000, -941.000000)" fill="#6085FE" fill-rule="nonzero" id="购买金额">
            <g filter="url(#filter-1)" transform="translate(275.000000, 943.000000)">
                <path d="M10.75,4.875 C14.2310239,4.875 17.125,7.58128611 17.125,10.9325153 L17.125,10.9325153 L17.125,16.3803681 C17.125,17.905413 15.8072455,19.125 14.25,19.125 L14.25,19.125 L3.75,19.125 C2.19275447,19.125 0.875,17.905413 0.875,16.3803681 L0.875,16.3803681 L0.875,10.9325153 C0.875,7.58128611 3.76897606,4.875 7.25,4.875 L7.25,4.875 Z M10.75,7.125 L7.25,7.125 C4.97914953,7.125 3.125,8.85889794 3.125,10.9325153 L3.125,10.9325153 L3.125,16.3803681 C3.125,16.6221943 3.39815462,16.875 3.75,16.875 L3.75,16.875 L7.89996358,16.8761736 C7.83159699,16.7857066 7.79105044,16.6730429 7.79105044,16.5509091 L7.79105044,15.1810542 L5.78877512,15.1810542 L5.78877512,14.8807181 C5.78877512,14.5824843 6.03054136,14.3407181 6.32877512,14.3407181 L7.79105044,14.3407181 L7.79105044,13.2839318 L7.77891543,13.2711994 L5.78877512,13.2711994 L5.78877512,12.9708633 C5.78877512,12.6726295 6.03054136,12.4308633 6.32877512,12.4308633 L7.32992036,12.4308633 L5.40099541,8.76258221 C5.26723425,8.50820553 5.36501245,8.19355764 5.61938913,8.05979648 C5.69407866,8.02052181 5.77719897,8 5.86158513,8 L6.38280878,8 C6.59078397,8 6.78027583,8.11943654 6.86998708,8.30706802 L8.55555556,11.8324421 L10.241124,8.30706802 C10.3308353,8.11943654 10.5203271,8 10.7283023,8 L11.249526,8 C11.5369273,8 11.7699122,8.23298484 11.7699122,8.5203862 C11.7699122,8.60477237 11.7493904,8.68789268 11.7101157,8.76258221 L9.78119075,12.4308633 L10.794471,12.4308633 C11.0927048,12.4308633 11.334471,12.6726295 11.334471,12.9708633 L11.334471,13.2711994 L9.33219568,13.2711994 L9.32006068,13.2839318 L9.32006068,14.3407181 L10.794471,14.3407181 C11.0927048,14.3407181 11.334471,14.5824843 11.334471,14.8807181 L11.334471,15.1810542 L9.32006068,15.1810542 L9.32006068,16.5509091 C9.32006068,16.6730429 9.27951412,16.7857066 9.21114754,16.8761736 L14.25,16.875 C14.6018454,16.875 14.875,16.6221943 14.875,16.3803681 L14.875,16.3803681 L14.875,10.9325153 C14.875,8.85889794 13.0208505,7.125 10.75,7.125 L10.75,7.125 Z M12.3758507,-8.48210391e-14 C12.7073266,-8.48210391e-14 12.9283106,0.338199162 12.8178186,0.676398323 L12.8178186,0.676398323 L11.160439,3.72019078 C11.0499471,4.05838994 10.7184711,4.17112299 10.3869952,4.17112299 L10.3869952,4.17112299 L6.29879227,4.17112299 C5.96731635,4.17112299 5.74633241,4.05838994 5.63584044,3.72019078 L5.63584044,3.72019078 L4.08895283,0.56366527 C3.86796889,0.338199162 4.08895283,-8.48210391e-14 4.42042874,-8.48210391e-14 L4.42042874,-8.48210391e-14 Z" id="形状结合"></path>
            </g>
        </g>
    </g>
</svg>