<?xml version="1.0" encoding="UTF-8"?>
<svg width="28px" height="28px" viewBox="0 0 28 28" version="1.1" xmlns="http://www.w3.org/2000/svg" xmlns:xlink="http://www.w3.org/1999/xlink">
    <title>Shape</title>
    <defs>
        <linearGradient x1="18.7634662%" y1="0%" x2="73.649383%" y2="100%" id="linearGradient-1">
            <stop stop-color="#6F73FA" offset="0%"></stop>
            <stop stop-color="#5C89FF" offset="100%"></stop>
        </linearGradient>
        <path d="M101.333333,959.84122 C102.444444,959.143327 103.694444,958.724592 104.944444,958.724592 C105.361111,958.724592 105.638889,958.86417 106.055556,958.86417 C106.194444,958.86417 106.194444,958.86417 106.055556,958.724592 C105.5,958.305856 104.666667,958.026699 103.972222,957.747542 C102.583333,957.04965 102.305556,956.630915 102.305556,955.933022 C102.305556,955.374708 102.722222,954.816394 103.277778,954.397659 C104.111111,953.699767 104.527778,952.583139 104.527778,951.326933 C104.527778,949.093677 103.138889,947 100.5,947 C98,947 96.6111111,949.093677 96.6111111,951.326933 C96.6111111,952.583139 97.0277778,953.699767 97.8611111,954.397659 C98.4166667,954.816394 98.8333333,955.374708 98.8333333,955.933022 C98.8333333,956.491336 98.5555556,957.04965 97.1666667,957.747542 C95.0833333,958.585013 93.1388889,959.562063 93,961.516161 C93,962.772367 93.9722222,963.749417 95.2222222,963.749417 L99.9444444,963.749417 C100.222222,963.749417 100.5,963.47026 100.5,963.191103 L100.5,960.957847 C100.638889,960.539112 100.777778,960.120376 101.333333,959.84122 L101.333333,959.84122 Z M112.166667,961.795318 C108.972222,962.772367 106.472222,959.84122 103,961.237004 C102.861111,961.237004 102.722222,961.516161 102.722222,961.795318 L102.722222,965.424358 C102.722222,965.843094 103,966.261829 103.555556,966.122251 C106.888889,965.005623 109.388889,967.936771 112.583333,966.680565 C112.861111,966.540986 113,966.261829 113,965.982672 L113,962.493211 C113,962.074475 112.583333,961.65574 112.166667,961.795318 L112.166667,961.795318 Z M108,965.145201 C107.166667,965.145201 106.611111,964.586888 106.611111,963.749417 C106.611111,962.911946 107.166667,962.493211 108,962.493211 C108.833333,962.493211 109.25,963.051524 109.25,963.749417 C109.25,964.447309 108.694444,965.145201 108,965.145201 Z" id="path-2"></path>
        <filter x="-35.0%" y="-25.0%" width="170.0%" height="170.0%" filterUnits="objectBoundingBox" id="filter-3">
            <feOffset dx="0" dy="2" in="SourceAlpha" result="shadowOffsetOuter1"></feOffset>
            <feGaussianBlur stdDeviation="2" in="shadowOffsetOuter1" result="shadowBlurOuter1"></feGaussianBlur>
            <feColorMatrix values="0 0 0 0 0.642663648   0 0 0 0 0.712405665   0 0 0 0 0.839815444  0 0 0 0.508003715 0" type="matrix" in="shadowBlurOuter1"></feColorMatrix>
        </filter>
    </defs>
    <g id="营销结果看板" stroke="none" stroke-width="1" fill="none" fill-rule="evenodd">
        <g transform="translate(-89.000000, -945.000000)" fill-rule="nonzero" id="Shape">
            <g>
                <use fill="black" fill-opacity="1" filter="url(#filter-3)" xlink:href="#path-2"></use>
                <use fill="url(#linearGradient-1)" xlink:href="#path-2"></use>
            </g>
        </g>
    </g>
</svg>