<?xml version="1.0" encoding="UTF-8"?>
<svg width="29px" height="28px" viewBox="0 0 29 28" version="1.1" xmlns="http://www.w3.org/2000/svg" xmlns:xlink="http://www.w3.org/1999/xlink">
    <title>形状结合</title>
    <defs>
        <filter x="-54.5%" y="-60.0%" width="209.1%" height="220.0%" filterUnits="objectBoundingBox" id="filter-1">
            <feOffset dx="0" dy="2" in="SourceAlpha" result="shadowOffsetOuter1"></feOffset>
            <feGaussianBlur stdDeviation="2" in="shadowOffsetOuter1" result="shadowBlurOuter1"></feGaussianBlur>
            <feColorMatrix values="0 0 0 0 0.648112182   0 0 0 0 0.763064925   0 0 0 0 0.816009964  0 0 0 0.5 0" type="matrix" in="shadowBlurOuter1" result="shadowMatrixOuter1"></feColorMatrix>
            <feMerge>
                <feMergeNode in="shadowMatrixOuter1"></feMergeNode>
                <feMergeNode in="SourceGraphic"></feMergeNode>
            </feMerge>
        </filter>
        <linearGradient x1="17.3863706%" y1="4.64852608%" x2="85.6636626%" y2="95.3514739%" id="linearGradient-2">
            <stop stop-color="#7BC3F3" offset="0%"></stop>
            <stop stop-color="#137FF1" offset="100%"></stop>
        </linearGradient>
    </defs>
    <g id="营销结果看板" stroke="none" stroke-width="1" fill="none" fill-rule="evenodd">
        <g transform="translate(-89.000000, -1152.000000)" fill="url(#linearGradient-2)" fill-rule="nonzero" id="编组-4">
            <g filter="url(#filter-1)" transform="translate(93.000000, 1154.000000)">
                <path d="M20.3299833,12.0452798 C20.695081,12.0452798 20.9910512,12.3456414 20.9910512,12.7161561 L20.9910512,17.290313 C21.0263125,17.433962 20.9548172,17.5825618 20.8215153,17.6426862 C20.6882133,17.7028105 20.5316159,17.6570894 20.4501775,17.5342681 L18.9477505,16.0095491 L15.522217,18.9979983 C15.3410599,19.1880523 15.0916576,19.2953613 14.8311006,19.2953613 C14.5705435,19.2953613 14.3211413,19.1880523 14.1399842,18.9979983 L12.0966835,16.6194367 L8.37066458,19.9128296 C8.25382278,20.0290568 8.06682682,20.0290568 7.94998502,19.9128296 L7.76969379,19.7298634 C7.69402981,19.6722734 7.64949963,19.5818916 7.64949963,19.4859083 C7.64949963,19.389925 7.69402981,19.2995433 7.76969379,19.2419533 L11.3755185,14.2408751 C11.5566757,14.0508211 11.8060779,13.9435121 12.0666349,13.9435121 C12.327192,13.9435121 12.5765942,14.0508211 12.7577513,14.2408751 L14.8611491,16.3144929 L16.9645469,13.8749425 L15.5823141,12.5941786 C15.5211943,12.4917455 15.5133275,12.3654449 15.5612512,12.2560168 C15.6091748,12.1465887 15.7068246,12.0678802 15.8227024,12.0452798 L20.3299833,12.0452798 Z M7.64949963,0 C10.3409902,0 11.7575642,2.201313 11.7575642,4.5493802 C11.7575642,5.870168 11.332592,7.0442016 10.4826476,7.7779726 C9.91601804,8.2182352 9.49104583,8.805252 9.49104583,9.3922688 C9.49104583,10.1260398 9.77436064,10.5663024 11.1909346,11.3000734 C11.8992216,11.5935818 11.4856623,12.5005209 11.1909346,12.5005209 C10.6372801,12.5005209 10.1833683,12.7367325 9.78094196,13.3839947 L9.78094196,13.3839947 L7.00633564,17.0032479 C6.63440967,17.4292971 6.08836918,17.610504 5.80505438,17.610504 L5.80505438,17.610504 L2.26651841,17.610504 C0.991601804,17.610504 1.5720758e-13,16.5832246 1.5720758e-13,15.2624368 C0.141657401,13.207878 2.12486101,12.1805986 4.24972202,11.3000734 C5.66629602,10.5663024 5.94961082,9.9792856 5.94961082,9.3922688 C5.94961082,8.805252 5.52463862,8.2182352 4.95800902,7.7779726 C4.10806461,7.0442016 3.68309241,5.870168 3.68309241,4.5493802 C3.68309241,2.201313 5.09966642,0 7.64949963,0 Z" id="形状结合"></path>
            </g>
        </g>
    </g>
</svg>