<?xml version="1.0" encoding="UTF-8"?>
<svg width="29px" height="29px" viewBox="0 0 29 29" version="1.1" xmlns="http://www.w3.org/2000/svg" xmlns:xlink="http://www.w3.org/1999/xlink">
    <title>形状结合</title>
    <defs>
        <linearGradient x1="2.03679934%" y1="68.9058431%" x2="79.2038033%" y2="18.0602682%" id="linearGradient-1">
            <stop stop-color="#F2C553" offset="0%"></stop>
            <stop stop-color="#F3A723" offset="100%"></stop>
        </linearGradient>
        <path d="M12.3749117,5.07353651 L14.0087699,6.74163814 C11.7130704,7.10786961 10.3813528,9.07397235 10.125,11.6375 L13.7210033,11.6375 C13.3801961,11.9888514 13.2567768,12.9650172 13.9,13.5625 L10.125,13.5625 C10.4,16.5875 11.775,18.5125 14.525,18.5125 C14.9375,17.4125 16.0375,16.5875 17.275,16.5875 C18.925,16.5875 20.3,17.825 20.3,19.475 C20.3,21.125 18.925,22.5 17.275,22.5 C16.0375,22.5 14.9375,21.675 14.525,20.575 C12.05,20.575 10.2625,19.475 9.1625,17.55 C8.6125,16.3125 8.2,15.075 8.0625,13.5625 L6.275,13.5625 C5.8625,14.8 4.7625,15.625 3.525,15.625 C1.875,15.625 0.5,14.25 0.5,12.6 C0.5,10.95 1.875,9.575 3.525,9.575 C4.7625,9.575 5.8625,10.4 6.275,11.6375 L8.0625,11.6375 C8.2,10.2625 8.6125,8.8875 9.3,7.65 C10.0331432,6.45864238 11.0716834,5.57268184 12.3749117,5.07353651 Z M17.275,18.5125 C16.725,18.5125 16.3125,18.925 16.3125,19.475 C16.3125,20.025 16.725,20.575 17.275,20.575 C17.825,20.575 18.375,20.025 18.375,19.475 C18.375,18.925 17.825,18.5125 17.275,18.5125 Z M14.2004484,0.241891892 C14.3798206,0.0527027027 14.6488789,0.0527027027 14.738565,0.241891892 L14.738565,0.241891892 L22.1699552,8.24900442 C22.5286996,8.6273828 22.5286996,9.10035577 22.1699552,9.47873415 L22.1699552,9.47873415 L17.9131166,13.822116 C17.7337444,14.0113052 17.5543722,14.0113052 17.375,13.822116 L17.375,13.822116 L16.2090807,12.5923862 C16.0297085,12.403197 16.0297085,12.1194133 16.2090807,11.9302241 L16.2090807,11.9302241 L19.3,8.81657198 L13.0345291,2.13378378 C12.855157,1.94459459 12.855157,1.66081081 13.0345291,1.47162162 L13.0345291,1.47162162 Z M3.525,11.6375 C2.975,11.6375 2.425,12.05 2.425,12.6 C2.425,13.15 2.975,13.5625 3.525,13.5625 C4.075,13.5625 4.4875,13.15 4.4875,12.6 C4.4875,12.05 4.075,11.6375 3.525,11.6375 Z" id="path-2"></path>
        <filter x="-31.9%" y="-22.3%" width="163.8%" height="162.5%" filterUnits="objectBoundingBox" id="filter-3">
            <feOffset dx="0" dy="2" in="SourceAlpha" result="shadowOffsetOuter1"></feOffset>
            <feGaussianBlur stdDeviation="2" in="shadowOffsetOuter1" result="shadowBlurOuter1"></feGaussianBlur>
            <feColorMatrix values="0 0 0 0 0.835682745   0 0 0 0 0.750782782   0 0 0 0 0.596236071  0 0 0 0.5 0" type="matrix" in="shadowBlurOuter1"></feColorMatrix>
        </filter>
    </defs>
    <g id="营销结果看板" stroke="none" stroke-width="1" fill="none" fill-rule="evenodd">
        <g transform="translate(-269.000000, -737.000000)" fill-rule="nonzero" id="icons/standard/environment_hub备份">
            <g transform="translate(285.500000, 751.500000) rotate(90.000000) translate(-285.500000, -751.500000) translate(274.000000, 740.000000)" id="形状结合">
                <use fill="black" fill-opacity="1" filter="url(#filter-3)" xlink:href="#path-2"></use>
                <use fill="url(#linearGradient-1)" xlink:href="#path-2"></use>
            </g>
        </g>
    </g>
</svg>