<?xml version="1.0" encoding="UTF-8"?>
<svg width="28px" height="28px" viewBox="0 0 28 28" version="1.1" xmlns="http://www.w3.org/2000/svg" xmlns:xlink="http://www.w3.org/1999/xlink">
    <title>Shape</title>
    <defs>
        <linearGradient x1="0%" y1="100%" x2="100%" y2="0%" id="linearGradient-1">
            <stop stop-color="#F1D167" offset="0%"></stop>
            <stop stop-color="#F3A11A" offset="100%"></stop>
        </linearGradient>
        <path d="M98.6388889,752.027778 C98.7777778,750.638889 99.1944444,749.25 99.8888889,748 C101,746.194444 102.805556,745.083333 105.166667,744.944444 C105.583333,743.833333 106.694444,743 107.944444,743 C109.611111,743 111,744.388889 111,746.055556 C111,747.722222 109.611111,748.972222 107.944444,748.972222 C106.694444,748.972222 105.583333,748.138889 105.166667,747.027778 C102.527778,747.166667 101,749.25 100.722222,752.027778 L105.166667,752.027778 C105.583333,750.777778 106.694444,749.944444 107.944444,749.944444 C109.611111,749.944444 111,751.333333 111,753 C111,754.666667 109.611111,756.055556 107.944444,756.055556 C106.694444,756.055556 105.583333,755.222222 105.166667,753.972222 L100.722222,753.972222 C101,757.027778 102.388889,758.972222 105.166667,758.972222 C105.583333,757.861111 106.694444,757.027778 107.944444,757.027778 C109.611111,757.027778 111,758.277778 111,759.944444 C111,761.611111 109.611111,763 107.944444,763 C106.694444,763 105.583333,762.166667 105.166667,761.055556 C102.666667,761.055556 100.861111,759.944444 99.75,758 C99.1944444,756.75 98.7777778,755.5 98.6388889,753.972222 L96.8333333,753.972222 C96.4166667,755.222222 95.3055556,756.055556 94.0555556,756.055556 C92.3888889,756.055556 91,754.666667 91,753 C91,751.333333 92.3888889,749.944444 94.0555556,749.944444 C95.3055556,749.944444 96.4166667,750.777778 96.8333333,752.027778 L98.6388889,752.027778 Z M107.944444,747.027778 C108.5,747.027778 109.055556,746.611111 109.055556,746.055556 C109.055556,745.5 108.5,744.944444 107.944444,744.944444 C107.388889,744.944444 106.972222,745.5 106.972222,746.055556 C106.972222,746.611111 107.388889,747.027778 107.944444,747.027778 Z M107.944444,761.055556 C108.5,761.055556 109.055556,760.5 109.055556,759.944444 C109.055556,759.388889 108.5,758.972222 107.944444,758.972222 C107.388889,758.972222 106.972222,759.388889 106.972222,759.944444 C106.972222,760.5 107.388889,761.055556 107.944444,761.055556 Z M107.944444,753.972222 C108.5,753.972222 109.055556,753.555556 109.055556,753 C109.055556,752.444444 108.5,752.027778 107.944444,752.027778 C107.388889,752.027778 106.972222,752.444444 106.972222,753 C106.972222,753.555556 107.388889,753.972222 107.944444,753.972222 Z M94.0555556,753.972222 C94.6111111,753.972222 95.0277778,753.555556 95.0277778,753 C95.0277778,752.444444 94.6111111,752.027778 94.0555556,752.027778 C93.5,752.027778 92.9444444,752.444444 92.9444444,753 C92.9444444,753.555556 93.5,753.972222 94.0555556,753.972222 Z" id="path-2"></path>
        <filter x="-35.0%" y="-25.0%" width="170.0%" height="170.0%" filterUnits="objectBoundingBox" id="filter-3">
            <feOffset dx="0" dy="2" in="SourceAlpha" result="shadowOffsetOuter1"></feOffset>
            <feGaussianBlur stdDeviation="2" in="shadowOffsetOuter1" result="shadowBlurOuter1"></feGaussianBlur>
            <feColorMatrix values="0 0 0 0 0.856034873   0 0 0 0 0.800576152   0 0 0 0 0.711513742  0 0 0 0.5 0" type="matrix" in="shadowBlurOuter1"></feColorMatrix>
        </filter>
    </defs>
    <g id="营销结果看板" stroke="none" stroke-width="1" fill="none" fill-rule="evenodd">
        <g transform="translate(-87.000000, -741.000000)" fill-rule="nonzero" id="Shape">
            <g>
                <use fill="black" fill-opacity="1" filter="url(#filter-3)" xlink:href="#path-2"></use>
                <use fill="url(#linearGradient-1)" xlink:href="#path-2"></use>
            </g>
        </g>
    </g>
</svg>