<?xml version="1.0" encoding="UTF-8"?>
<svg width="23px" height="23px" viewBox="0 0 23 23" version="1.1" xmlns="http://www.w3.org/2000/svg" xmlns:xlink="http://www.w3.org/1999/xlink">
    <title>Shape</title>
    <defs>
        <linearGradient x1="17.1973443%" y1="0%" x2="73.3897903%" y2="100%" id="linearGradient-1">
            <stop stop-color="#F0E486" offset="0%"></stop>
            <stop stop-color="#F39201" offset="100%"></stop>
        </linearGradient>
        <path d="M107.959091,530.855407 C107.266983,529.481778 105.344463,526.951408 101.883926,528.46963 C99.7307025,529.409482 98.5002893,529.915556 98.5002893,529.915556 L95.3473554,531.216889 C94.5014463,531.57837 92.5789257,531 91.5023141,530.638519 C91.1947108,530.566222 90.8871075,530.855407 91.0409091,531.144593 C91.7330166,532.518222 93.6555372,535.048592 97.1160744,533.53037 C99.2692975,532.590518 103.652645,530.855407 103.652645,530.855407 C104.498554,530.42163 106.421074,531 107.497686,531.361481 C107.805289,531.433778 108.112893,531.144593 107.959091,530.855407 Z M100.515672,535.483229 C100.125029,535.715981 98.5624566,536.414235 98.5624566,536.414235 L96.9217558,537.11249 C96.1404696,537.500409 94.4216402,536.957322 93.4059682,536.569403 C93.1715823,536.414235 92.9371965,536.802155 93.0153251,537.034906 C93.7184826,538.508999 95.3591835,541.069266 98.484328,539.517589 C100.437543,538.508999 102.078244,537.888328 102.078244,537.888328 C102.85953,537.422825 104.57836,538.043496 105.594032,538.431415 C105.828418,538.508999 106.062803,538.198664 105.984675,537.888328 C105.281517,536.491819 103.640816,533.931553 100.515672,535.483229 Z M99.8420831,541.460814 C99.5262494,541.635284 98.9735403,541.984222 98.9735403,541.984222 C98.3418728,542.420395 97.0785379,541.896987 96.2889535,541.460814 C96.1310366,541.37358 95.8941613,541.722518 96.0520782,542.071457 C96.5258288,543.467211 97.7891638,546.084249 100.157917,544.514026 L101.02646,543.903384 C101.658127,543.554445 102.921462,544.077853 103.711046,544.426791 C103.868963,544.601261 104.105839,544.252322 103.947922,543.903384 C103.474171,542.420395 102.289795,539.977826 99.8420831,541.460814 Z" id="path-2"></path>
        <filter x="-32.4%" y="-20.6%" width="164.7%" height="164.7%" filterUnits="objectBoundingBox" id="filter-3">
            <feOffset dx="0" dy="2" in="SourceAlpha" result="shadowOffsetOuter1"></feOffset>
            <feGaussianBlur stdDeviation="1.5" in="shadowOffsetOuter1" result="shadowBlurOuter1"></feGaussianBlur>
            <feColorMatrix values="0 0 0 0 0.792346014   0 0 0 0 0.71772203   0 0 0 0 0.567762421  0 0 0 0.500519012 0" type="matrix" in="shadowBlurOuter1"></feColorMatrix>
        </filter>
    </defs>
    <g id="营销结果看板" stroke="none" stroke-width="1" fill="none" fill-rule="evenodd">
        <g transform="translate(-88.000000, -527.000000)" fill-rule="nonzero" id="Shape">
            <g>
                <use fill="black" fill-opacity="1" filter="url(#filter-3)" xlink:href="#path-2"></use>
                <use fill="url(#linearGradient-1)" xlink:href="#path-2"></use>
            </g>
        </g>
    </g>
</svg>